<?xml version="1.0" encoding="utf-8"?>
<!-- Generator: Adobe Illustrator 27.8.1, SVG Export Plug-In . SVG Version: 6.00 Build 0)  -->
<svg version="1.1" id="Layer_1" xmlns="http://www.w3.org/2000/svg" xmlns:xlink="http://www.w3.org/1999/xlink" x="0px" y="0px"
	 viewBox="0 0 45 16.6" style="enable-background:new 0 0 45 16.6;" xml:space="preserve">
<style type="text/css">
	.st0{fill:#FFFFFF;}
	.st1{clip-path:url(#SVGID_00000151519896134815859980000012834278163305568385_);fill:#FFFFFF;}
	.st2{clip-path:url(#SVGID_00000097469573284386157450000000336416207966157986_);fill:#FFFFFF;}
	.st3{clip-path:url(#SVGID_00000090975032602128292400000001543895647987180190_);fill:#FFFFFF;}
	.st4{clip-path:url(#SVGID_00000049181507265472769700000013087783000005885342_);fill:#FFFFFF;}
	.st5{clip-path:url(#SVGID_00000031914306967196837770000007571521822162042539_);fill:#FFFFFF;}
</style>
<polygon class="st0" points="1,13 1,14.3 2,14.3 2,14.1 1.3,14.1 1.3,13.7 1.9,13.7 1.9,13.5 1.3,13.5 1.3,13.2 1.9,13.2 1.9,13 "/>
<g>
	<defs>
		<rect id="SVGID_1_" width="45" height="16.4"/>
	</defs>
	<clipPath id="SVGID_00000111153914977891745420000015418999859052564409_">
		<use xlink:href="#SVGID_1_"  style="overflow:visible;"/>
	</clipPath>
	<path style="clip-path:url(#SVGID_00000111153914977891745420000015418999859052564409_);fill:#FFFFFF;" d="M2.8,13.9l0.1,0.1
		c-0.1,0-0.1,0-0.1,0c-0.1,0-0.3-0.1-0.3-0.4c0-0.4,0.2-0.4,0.3-0.4c0.1,0,0.3,0.1,0.3,0.4c0,0.1,0,0.2-0.1,0.3l-0.1-0.1L2.8,13.9z
		 M3.4,14.2l-0.1-0.1c0.1-0.1,0.1-0.2,0.1-0.4c0-0.6-0.4-0.7-0.6-0.7c-0.2,0-0.6,0.1-0.6,0.7c0,0.6,0.4,0.7,0.6,0.7
		c0.1,0,0.2,0,0.3-0.1l0.1,0.1L3.4,14.2z"/>
	<path style="clip-path:url(#SVGID_00000111153914977891745420000015418999859052564409_);fill:#FFFFFF;" d="M4.6,13.8
		c0,0.3-0.2,0.5-0.5,0.5c-0.1,0-0.3,0-0.4-0.2c-0.1-0.1-0.1-0.2-0.1-0.3V13h0.3v0.8c0,0.2,0.1,0.3,0.2,0.3c0.2,0,0.3-0.1,0.3-0.2V13
		h0.3V13.8z"/>
</g>
<path class="st0" d="M5.3,13.3L5.3,13.3l0.2,0.5H5.1L5.3,13.3z M5.1,14h0.5l0.1,0.3h0.3L5.5,13H5.2l-0.4,1.2H5L5.1,14z"/>
<polygon class="st0" points="6.1,13 6.1,14.3 7,14.3 7,14 6.4,14 6.4,13 "/>
<polygon class="st0" points="8.5,13 8.5,13.5 8,13.5 8,13 7.7,13 7.7,14.3 8,14.3 8,13.7 8.5,13.7 8.5,14.3 8.7,14.3 8.7,13 "/>
<g>
	<defs>
		<rect id="SVGID_00000166645609513414682560000014124628958912254604_" width="45" height="16.4"/>
	</defs>
	<clipPath id="SVGID_00000119103991025683351850000014778723374010166719_">
		<use xlink:href="#SVGID_00000166645609513414682560000014124628958912254604_"  style="overflow:visible;"/>
	</clipPath>
	<path style="clip-path:url(#SVGID_00000119103991025683351850000014778723374010166719_);fill:#FFFFFF;" d="M9.2,13.7
		c0-0.4,0.2-0.4,0.3-0.4c0.1,0,0.3,0.1,0.3,0.4c0,0.3-0.2,0.4-0.3,0.4C9.4,14.1,9.2,14,9.2,13.7 M9,13.7c0,0.6,0.4,0.7,0.6,0.7
		c0.2,0,0.6-0.1,0.6-0.7c0-0.6-0.4-0.7-0.6-0.7C9.4,13,9,13.1,9,13.7"/>
	<path style="clip-path:url(#SVGID_00000119103991025683351850000014778723374010166719_);fill:#FFFFFF;" d="M11.4,13.8
		c0,0.3-0.2,0.5-0.5,0.5c-0.1,0-0.3,0-0.4-0.2c-0.1-0.1-0.1-0.2-0.1-0.3V13h0.3v0.8c0,0.2,0.1,0.3,0.2,0.3c0.2,0,0.3-0.1,0.3-0.2V13
		h0.3V13.8z"/>
	<path style="clip-path:url(#SVGID_00000119103991025683351850000014778723374010166719_);fill:#FFFFFF;" d="M11.9,13.9
		c0,0.1,0,0.2,0.3,0.2c0.1,0,0.2,0,0.2-0.2c0-0.1-0.1-0.1-0.2-0.2l-0.1,0c-0.2,0-0.4-0.1-0.4-0.4c0-0.1,0.1-0.4,0.5-0.4
		c0.4,0,0.5,0.3,0.5,0.4h-0.3c0-0.1,0-0.2-0.3-0.2c-0.1,0-0.2,0-0.2,0.1c0,0.1,0.1,0.1,0.1,0.1l0.3,0.1c0.2,0,0.3,0.1,0.3,0.3
		c0,0.4-0.4,0.4-0.5,0.4c-0.5,0-0.5-0.3-0.5-0.4H11.9z"/>
</g>
<rect x="12.9" y="13" class="st0" width="0.3" height="1.2"/>
<polygon class="st0" points="14.2,13 14.2,13.9 14.2,13.9 13.7,13 13.4,13 13.4,14.3 13.7,14.3 13.7,13.4 14.2,14.3 14.4,14.3 
	14.4,13 "/>
<g>
	<defs>
		<rect id="SVGID_00000090287609310151439810000015028633776695660418_" width="45" height="16.4"/>
	</defs>
	<clipPath id="SVGID_00000071542221532664315160000010710570586794391692_">
		<use xlink:href="#SVGID_00000090287609310151439810000015028633776695660418_"  style="overflow:visible;"/>
	</clipPath>
	<path style="clip-path:url(#SVGID_00000071542221532664315160000010710570586794391692_);fill:#FFFFFF;" d="M15.3,13.6h0.5v0.7
		h-0.2l0-0.2c-0.1,0.1-0.2,0.2-0.4,0.2c-0.3,0-0.6-0.2-0.6-0.7c0-0.3,0.2-0.7,0.6-0.7c0.4,0,0.5,0.2,0.6,0.4h-0.3
		c0-0.1-0.1-0.2-0.3-0.2c-0.2,0-0.4,0.1-0.4,0.4c0,0.3,0.2,0.4,0.4,0.4c0.1,0,0.3,0,0.3-0.3h-0.3V13.6z"/>
	<path style="clip-path:url(#SVGID_00000071542221532664315160000010710570586794391692_);fill:#FFFFFF;" d="M1.2,15.5
		c0-0.3,0.2-0.4,0.3-0.4c0.1,0,0.3,0.1,0.3,0.4c0,0.4-0.2,0.4-0.3,0.4C1.4,16,1.2,15.9,1.2,15.5 M1,15.5c0,0.6,0.4,0.7,0.6,0.7
		s0.6-0.1,0.6-0.7c0-0.6-0.4-0.7-0.6-0.7S1,15,1,15.5"/>
	<path style="clip-path:url(#SVGID_00000071542221532664315160000010710570586794391692_);fill:#FFFFFF;" d="M2.9,15.5v-0.4h0.2
		c0.2,0,0.2,0,0.2,0.2c0,0.1,0,0.2-0.2,0.2H2.9z M2.9,15.7h0.3c0.3,0,0.4-0.3,0.4-0.4c0-0.2-0.2-0.4-0.4-0.4H2.6v1.3h0.2V15.7z"/>
	<path style="clip-path:url(#SVGID_00000071542221532664315160000010710570586794391692_);fill:#FFFFFF;" d="M4.3,15.5v-0.4h0.2
		c0.2,0,0.2,0,0.2,0.2c0,0.1,0,0.2-0.2,0.2H4.3z M4.3,15.7h0.3c0.3,0,0.4-0.3,0.4-0.4c0-0.2-0.1-0.4-0.4-0.4H4v1.3h0.3V15.7z"/>
	<path style="clip-path:url(#SVGID_00000071542221532664315160000010710570586794391692_);fill:#FFFFFF;" d="M5.6,15.5
		c0-0.3,0.2-0.4,0.3-0.4c0.1,0,0.3,0.1,0.3,0.4C6.3,15.9,6.1,16,6,16C5.8,16,5.6,15.9,5.6,15.5 M5.4,15.5c0,0.6,0.4,0.7,0.6,0.7
		c0.2,0,0.6-0.1,0.6-0.7c0-0.6-0.4-0.7-0.6-0.7C5.8,14.9,5.4,15,5.4,15.5"/>
	<path style="clip-path:url(#SVGID_00000071542221532664315160000010710570586794391692_);fill:#FFFFFF;" d="M7.3,15.5v-0.3h0.3
		c0.2,0,0.2,0.1,0.2,0.2c0,0.1-0.1,0.2-0.2,0.2H7.3z M7,16.2h0.3v-0.5h0.3c0.2,0,0.2,0.1,0.2,0.2c0,0.1,0,0.2,0,0.3h0.3v0
		C8,16.1,8,16.1,8,15.9c0-0.2-0.1-0.3-0.1-0.3c0.1,0,0.2-0.2,0.2-0.3c0-0.1-0.1-0.4-0.4-0.4H7V16.2z"/>
</g>
<polygon class="st0" points="8.4,14.9 8.4,15.1 8.8,15.1 8.8,16.2 9,16.2 9,15.1 9.4,15.1 9.4,14.9 "/>
<g>
	<defs>
		<rect id="SVGID_00000077307609464628842420000018214144008116566948_" width="45" height="16.4"/>
	</defs>
	<clipPath id="SVGID_00000065076759722011077310000003915608320438733478_">
		<use xlink:href="#SVGID_00000077307609464628842420000018214144008116566948_"  style="overflow:visible;"/>
	</clipPath>
	<path style="clip-path:url(#SVGID_00000065076759722011077310000003915608320438733478_);fill:#FFFFFF;" d="M10.8,15.7
		c0,0.3-0.2,0.5-0.5,0.5c-0.1,0-0.3,0-0.4-0.1c-0.1-0.1-0.1-0.2-0.1-0.3v-0.8h0.3v0.8c0,0.2,0.1,0.3,0.2,0.3c0.2,0,0.3-0.1,0.3-0.2
		v-0.8h0.3V15.7z"/>
</g>
<polygon class="st0" points="12.1,14.9 12.1,15.8 12.1,15.8 11.6,14.9 11.3,14.9 11.3,16.2 11.6,16.2 11.6,15.3 12.1,16.2 
	12.3,16.2 12.3,14.9 "/>
<rect x="12.8" y="14.9" class="st0" width="0.3" height="1.3"/>
<polygon class="st0" points="13.5,14.9 13.5,15.1 13.8,15.1 13.8,16.2 14.1,16.2 14.1,15.1 14.5,15.1 14.5,14.9 "/>
<polygon class="st0" points="15.6,14.9 15.3,15.5 15.1,14.9 14.8,14.9 15.2,15.7 15.2,16.2 15.5,16.2 15.5,15.7 15.9,14.9 "/>
<path class="st0" d="M2.8,4.8l5.7-2.9L14,4.8v5.3H2.8V4.8z M8.4,0L0,4.1v1.9h0.9v5.8h14.9V6.1H17V4.1L8.4,0z"/>
<rect x="5.8" y="4.8" class="st0" width="5.2" height="1.9"/>
<rect x="5.8" y="7.5" class="st0" width="5.2" height="1.9"/>
<g>
	<defs>
		<rect id="SVGID_00000147901224767380794190000004696652573417862823_" width="45" height="16.4"/>
	</defs>
	<clipPath id="SVGID_00000008857486375922134400000003640546011630557063_">
		<use xlink:href="#SVGID_00000147901224767380794190000004696652573417862823_"  style="overflow:visible;"/>
	</clipPath>
	<path style="clip-path:url(#SVGID_00000008857486375922134400000003640546011630557063_);fill:#FFFFFF;" d="M44.6,12.5L43,13
		l-2.1-4.9l-5,0l-0.1-0.9h3.6V5.9h-3.8l-0.2-2.9c0.8-0.1,1.4-0.8,1.3-1.6C36.7,0.5,36-0.1,35.2,0c-0.8,0.1-1.3,0.7-1.3,1.5
		c0,0.2,0.1,0.5,0.2,0.7l0.5,7.3h5.4l2.2,5.2l2.9-1.1L44.6,12.5z"/>
	<path style="clip-path:url(#SVGID_00000008857486375922134400000003640546011630557063_);fill:#FFFFFF;" d="M36,14.9
		c-2.2,0-3.9-1.8-3.9-3.9c0-1.3,0.7-2.6,1.8-3.3l-0.1-1.6c-2.7,1.2-3.9,4.4-2.7,7.1c0.9,1.9,2.8,3.2,4.9,3.2c2,0,3.9-1.2,4.8-3
		l-1-1.9C39.7,13.4,38,14.9,36,14.9"/>
</g>
</svg>
