<?xml version="1.0" encoding="UTF-8"?>
<svg id="a" data-name="Layer 1" xmlns="http://www.w3.org/2000/svg" viewBox="0 0 1027.7 1208.7">
  <g>
    <path d="m904.4-1.35h47.2c.4-.1.7.2.9.5.9,2,2,4,2.9,6,4.1,9.3,7,19,9.1,28.8,1.2,5.4,2.2,10.8,2.9,16.2.6,3.9,1,7.8,1.5,11.8.5,4.3.9,8.5,1.2,12.8.3,4.5.6,9,.8,13.5.3,6.5.5,13.1.7,19.6.1,4.5.2,9.1.2,13.6.1,12.1.2,24.2.2,36.4v3.9h-21.2v-.9c0-11.7,0-23.3-.2-35-.1-8.7-.3-17.5-.6-26.2-.1-3.8-.3-7.6-.5-11.4v-.5h-24.9v73.9h-20.3c-.1-.4-.1-162,.1-163m20.3,19.7v50h23.4v-.7c-.3-3-.6-6-1-9-.7-5.5-1.6-11-2.6-16.5-1.4-6.8-3.1-13.6-5.3-20.3-.4-1.2-.9-2.4-1.3-3.6l-13.2.1h0Z" fill="#172267" stroke-width="0"/>
    <path d="m812.3-1.35h47.7c.2.6.2,18.5.1,19.7h-25.1v50h19.1c.2.6.3,17.7.1,19.4h-19.1l-.1.1v73.9h-22.5l-.2-163.1h0Z" fill="#172267" stroke-width="0"/>
    <path d="m987.1,18.35h-18V-1.35h58.6v19.7h-17.8v143.4h-22.6s-.1-95.6-.1-143.1v-.1s0,0-.1-.2" fill="#172267" stroke-width="0"/>
    <path d="m892.1,161.85h-23.2l-.1-.1V-1.25c.6-.2,22.6-.2,23.3,0v163.1Z" fill="#172267" stroke-width="0"/>
    <path d="m887,202.05c-1,2-2.4,3.5-4.1,4.5h0c-1.8,1-3.9,1.6-6.2,1.6s-4.4-.5-6.2-1.6c-1.8-1-3.2-2.6-4.2-4.5-1-2-1.5-4.3-1.5-7s.5-5,1.5-7c1-1.9,2.4-3.4,4.2-4.5,1.8-1,3.9-1.6,6.2-1.6s4.4.5,6.2,1.6c1.8,1,3.1,2.5,4.1,4.5s1.5,4.3,1.5,7-.5,5-1.5,7m-1.9-21.9c-2.6-1.5-5.4-2.2-8.5-2.2s-5.9.7-8.5,2.2-4.6,3.5-6.1,6.1-2.3,5.6-2.3,8.8.8,6.3,2.3,8.9,3.6,4.6,6.1,6.1c2.6,1.5,5.4,2.2,8.5,2.2s5.9-.7,8.5-2.2,4.6-3.5,6.1-6.1,2.2-5.6,2.2-8.9-.8-6.2-2.2-8.8c-1.5-2.6-3.5-4.6-6.1-6.1" fill="#172267" stroke-width="0"/>
    <path d="m893,204.95c-1.7,2.9-4,5.2-6.9,6.9-2.9,1.6-6.1,2.5-9.5,2.5s-6.6-.8-9.5-2.5c-2.9-1.6-5.2-4-6.9-6.9s-2.5-6.2-2.5-9.9.9-6.9,2.5-9.9c1.7-2.9,4-5.2,6.9-6.9,2.9-1.6,6.1-2.5,9.5-2.5s6.7.8,9.5,2.5c2.9,1.6,5.2,4,6.9,6.9s2.5,6.2,2.5,9.8c0,3.8-.8,7.1-2.5,10m3.6-21.7c-2-3.5-4.9-6.3-8.4-8.3s-7.4-3-11.7-3-8.1,1-11.6,3-6.4,4.8-8.4,8.3c-2.1,3.5-3.1,7.5-3.1,11.9s1,8.4,3.1,11.9,4.9,6.3,8.4,8.3,7.4,3,11.6,3,8.1-1,11.6-3,6.3-4.8,8.4-8.3c2-3.5,3.1-7.5,3.1-11.9.1-4.5-.9-8.4-3-11.9" fill="#172267" stroke-width="0"/>
    <path d="m909.6,172.55v28c0,2.5.5,4.7,1.6,6.4,1,1.7,2.5,3,4.3,3.9s3.8,1.3,6,1.3,4.3-.4,6.1-1.3,3.3-2.2,4.4-3.9c1.1-1.7,1.6-3.9,1.6-6.4v-28h-4.6v27.7c0,2.6-.6,4.5-1.9,5.8-1.3,1.3-3.1,1.9-5.6,1.9s-4.2-.6-5.5-1.9-1.9-3.3-1.9-5.8v-27.7h-4.5Z" fill="#172267" stroke-width="0"/>
    <path d="m935.6,172.55v28c0,2.9-.7,5.4-1.9,7.5-1.3,2.1-3.1,3.6-5.2,4.7-2.1,1-4.5,1.5-7,1.5s-4.9-.5-6.9-1.5c-2.1-1-3.9-2.6-5.1-4.7-1.2-2.1-1.9-4.6-1.9-7.5v-28h-4.4v27.6c0,3.8.8,7.2,2.4,9.8,1.6,2.7,3.9,4.8,6.7,6.1,2.7,1.3,5.8,2,9.2,2s6.5-.7,9.3-2c2.8-1.4,5.1-3.4,6.8-6.1s2.5-6,2.5-9.9v-27.6h-4.5v.1Z" fill="#172267" stroke-width="0"/>
    <path d="m952,196.75c1.8.8,4.1,1.7,7,2.5,2,.6,3.6,1.1,4.7,1.5,1,.4,1.8,1,2.5,1.6.6.6.8,1.4.8,2.3,0,1.2-.4,2.1-1.3,2.9-.9.8-2.3,1.2-4,1.2s-2.9-.4-3.8-1.2c-.9-.8-1.4-1.9-1.5-3.4l-.1-1.1h-4.5l.1,1.6c.2,2.5,1.2,4.4,2.9,5.8s4.1,2.1,6.9,2.1c1.9,0,3.6-.3,5-1,1.4-.6,2.6-1.6,3.4-2.8.8-1.2,1.2-2.6,1.2-4.2,0-1.7-.4-3.1-1.2-4.1s-1.7-1.8-2.8-2.3-2.6-1.1-4.4-1.6c-.1,0-.2-.1-.3-.1l-2.3-.7c-.2-.1-.4-.1-.7-.2-1.9-.6-3.5-1.1-4.7-1.7-1.4-.7-2.6-1.6-3.6-2.9-1.1-1.4-1.6-3.2-1.6-5.4,0-2,.5-3.9,1.5-5.4s2.5-2.7,4.3-3.5c1.7-.8,3.7-1.1,5.9-1.1,3.3,0,6,.8,8.2,2.5s3.5,4.2,3.7,7.3l.1,1.4h4.5l-.1-1.3c-.3-4.2-2-7.5-5-9.8s-6.8-3.5-11.5-3.5c-3.1,0-5.9.5-8.3,1.6-2.5,1.1-4.5,2.7-5.8,4.8-1.4,2.1-2.1,4.5-2.1,7.3,0,3,.7,5.4,2.1,7.2,1.3,1.5,2.9,2.9,4.8,3.7" fill="#172267" stroke-width="0"/>
    <path d="m976.1,197.05c-1.4-1.8-3.1-3.1-5-4-1.8-.8-4.1-1.7-7-2.5-2-.6-3.6-1.1-4.6-1.6-1-.4-1.8-.9-2.4-1.6-.5-.5-.8-1.2-.8-2,0-1.3.4-2.2,1.1-2.8.8-.7,1.8-1,3.2-1,1.6,0,2.9.4,3.9,1.2.9.7,1.4,1.7,1.4,2.8l.1,1.1h5.2l-.1-1.3c-.2-2.5-1.2-4.4-2.9-5.8s-4.1-2.1-6.9-2.1c-1.9,0-3.6.3-5,1-1.4.6-2.6,1.6-3.4,2.8-.8,1.2-1.2,2.6-1.2,4.2,0,1.7.4,3.1,1.2,4.1s1.7,1.8,2.8,2.3,2.6,1.1,4.4,1.6c.1,0,.2.1.3.1l2.3.7c.2.1.4.1.7.2,1.9.6,3.5,1.1,4.7,1.7,1.4.7,2.6,1.6,3.6,2.9,1.1,1.4,1.6,3.2,1.6,5.4,0,2-.5,3.9-1.5,5.4s-2.5,2.7-4.3,3.5c-1.7.8-3.7,1.1-5.9,1.1-3.3,0-6-.8-8.2-2.5s-3.5-4.2-3.7-7.3l-.1-1.7h-4.9v1.2c0,2.9.8,5.4,2.4,7.5,1.5,2.1,3.6,3.7,6.2,4.8,2.5,1.1,5.4,1.6,8.5,1.6,3.3,0,6.3-.6,8.7-1.9,2.5-1.3,4.4-3,5.7-5.1s2-4.5,2-7c.1-2.8-.6-5.2-2.1-7" fill="#172267" stroke-width="0"/>
    <rect x="812.3" y="172.55" width="4.6" height="45.2" fill="#172267" stroke-width="0"/>
    <polygon points="819 172.55 819 193.95 843.8 193.95 843.8 172.55 839.2 172.55 839.2 190.15 823.3 190.15 823.3 172.55 819 172.55" fill="#172267" stroke-width="0"/>
    <rect x="845.9" y="172.55" width="4.3" height="45.2" fill="#172267" stroke-width="0"/>
    <polygon points="989.3 178.15 989.3 193.75 1009.9 193.75 1009.9 190.25 993.7 190.25 993.7 181.85 1009.9 181.85 1009.9 178.15 989.3 178.15" fill="#172267" stroke-width="0"/>
    <polygon points="982.7 172.55 982.7 217.75 1009.9 217.75 1009.9 208.45 993.7 208.45 993.7 199.45 1009.9 199.45 1009.9 195.85 989.3 195.85 989.3 212.25 1009.9 212.25 1009.9 214.35 987.2 214.35 987.2 176.05 1009.9 176.05 1009.9 172.55 982.7 172.55" fill="#172267" stroke-width="0"/>
    <polygon points="819 195.95 819 217.75 823.3 217.75 823.3 199.55 839.2 199.55 839.2 217.75 843.8 217.75 843.8 195.95 819 195.95" fill="#172267" stroke-width="0"/>
  </g>
  <g>
    <path d="m635.1,245.47h47.2c.4-.1.7.2.9.5.9,2,2,4,2.9,6,4.1,9.3,7,19,9.1,28.8,1.2,5.4,2.2,10.8,2.9,16.2.6,3.9,1,7.8,1.5,11.8.5,4.3.9,8.5,1.2,12.8.3,4.5.6,9,.8,13.5.3,6.5.5,13.1.7,19.6.1,4.5.2,9.1.2,13.6.1,12.1.2,24.2.2,36.4v3.9h-21.2v-.9c0-11.7,0-23.3-.2-35-.1-8.7-.3-17.5-.6-26.2-.1-3.8-.3-7.6-.5-11.4v-.5h-24.9v73.9h-20.3c-.1-.4-.1-162,.1-163m20.3,19.7v50h23.4v-.7c-.3-3-.6-6-1-9-.7-5.5-1.6-11-2.6-16.5-1.4-6.8-3.1-13.6-5.3-20.3-.4-1.2-.9-2.4-1.3-3.6l-13.2.1h0Z" fill="#172267" stroke-width="0"/>
    <path d="m543,245.47h47.7c.2.6.2,18.5.1,19.7h-25.1v50h19.1c.2.6.3,17.7.1,19.4h-19.1l-.1.1v73.9h-22.5l-.2-163.1h0Z" fill="#172267" stroke-width="0"/>
    <path d="m717.8,265.17h-18v-19.7h58.6v19.7h-17.8v143.4h-22.6s-.1-95.6-.1-143.1v-.1s0,0-.1-.2" fill="#172267" stroke-width="0"/>
    <path d="m622.8,408.67h-23.2l-.1-.1v-163c.6-.2,22.6-.2,23.3,0v163.1Z" fill="#172267" stroke-width="0"/>
    <path d="m617.7,448.87c-1,2-2.4,3.5-4.1,4.5h0c-1.8,1-3.9,1.6-6.2,1.6s-4.4-.5-6.2-1.6c-1.8-1-3.2-2.6-4.2-4.5-1-2-1.5-4.3-1.5-7s.5-5,1.5-7c1-1.9,2.4-3.4,4.2-4.5,1.8-1,3.9-1.6,6.2-1.6s4.4.5,6.2,1.6c1.8,1,3.1,2.5,4.1,4.5s1.5,4.3,1.5,7-.5,5-1.5,7m-1.9-21.9c-2.6-1.5-5.4-2.2-8.5-2.2s-5.9.7-8.5,2.2-4.6,3.5-6.1,6.1-2.3,5.6-2.3,8.8.8,6.3,2.3,8.9,3.6,4.6,6.1,6.1c2.6,1.5,5.4,2.2,8.5,2.2s5.9-.7,8.5-2.2,4.6-3.5,6.1-6.1,2.2-5.6,2.2-8.9-.8-6.2-2.2-8.8c-1.5-2.6-3.5-4.6-6.1-6.1" fill="#172267" stroke-width="0"/>
    <path d="m623.7,451.77c-1.7,2.9-4,5.2-6.9,6.9-2.9,1.6-6.1,2.5-9.5,2.5s-6.6-.8-9.5-2.5c-2.9-1.6-5.2-4-6.9-6.9s-2.5-6.2-2.5-9.9.9-6.9,2.5-9.9c1.7-2.9,4-5.2,6.9-6.9,2.9-1.6,6.1-2.5,9.5-2.5s6.7.8,9.5,2.5c2.9,1.6,5.2,4,6.9,6.9s2.5,6.2,2.5,9.8c0,3.8-.8,7.1-2.5,10m3.6-21.7c-2-3.5-4.9-6.3-8.4-8.3s-7.4-3-11.7-3-8.1,1-11.6,3-6.4,4.8-8.4,8.3c-2.1,3.5-3.1,7.5-3.1,11.9s1,8.4,3.1,11.9,4.9,6.3,8.4,8.3,7.4,3,11.6,3,8.1-1,11.6-3,6.3-4.8,8.4-8.3c2-3.5,3.1-7.5,3.1-11.9.1-4.5-.9-8.4-3-11.9" fill="#172267" stroke-width="0"/>
    <path d="m640.3,419.37v28c0,2.5.5,4.7,1.6,6.4,1,1.7,2.5,3,4.3,3.9s3.8,1.3,6,1.3,4.3-.4,6.1-1.3,3.3-2.2,4.4-3.9c1.1-1.7,1.6-3.9,1.6-6.4v-28h-4.6v27.7c0,2.6-.6,4.5-1.9,5.8-1.3,1.3-3.1,1.9-5.6,1.9s-4.2-.6-5.5-1.9-1.9-3.3-1.9-5.8v-27.7h-4.5Z" fill="#172267" stroke-width="0"/>
    <path d="m666.3,419.37v28c0,2.9-.7,5.4-1.9,7.5-1.3,2.1-3.1,3.6-5.2,4.7-2.1,1-4.5,1.5-7,1.5s-4.9-.5-6.9-1.5c-2.1-1-3.9-2.6-5.1-4.7-1.2-2.1-1.9-4.6-1.9-7.5v-28h-4.4v27.6c0,3.8.8,7.2,2.4,9.8,1.6,2.7,3.9,4.8,6.7,6.1,2.7,1.3,5.8,2,9.2,2s6.5-.7,9.3-2c2.8-1.4,5.1-3.4,6.8-6.1s2.5-6,2.5-9.9v-27.6h-4.5v.1Z" fill="#172267" stroke-width="0"/>
    <path d="m682.7,443.57c1.8.8,4.1,1.7,7,2.5,2,.6,3.6,1.1,4.7,1.5,1,.4,1.8,1,2.5,1.6.6.6.8,1.4.8,2.3,0,1.2-.4,2.1-1.3,2.9-.9.8-2.3,1.2-4,1.2s-2.9-.4-3.8-1.2c-.9-.8-1.4-1.9-1.5-3.4l-.1-1.1h-4.5l.1,1.6c.2,2.5,1.2,4.4,2.9,5.8s4.1,2.1,6.9,2.1c1.9,0,3.6-.3,5-1,1.4-.6,2.6-1.6,3.4-2.8.8-1.2,1.2-2.6,1.2-4.2,0-1.7-.4-3.1-1.2-4.1s-1.7-1.8-2.8-2.3-2.6-1.1-4.4-1.6c-.1,0-.2-.1-.3-.1l-2.3-.7c-.2-.1-.4-.1-.7-.2-1.9-.6-3.5-1.1-4.7-1.7-1.4-.7-2.6-1.6-3.6-2.9-1.1-1.4-1.6-3.2-1.6-5.4,0-2,.5-3.9,1.5-5.4s2.5-2.7,4.3-3.5c1.7-.8,3.7-1.1,5.9-1.1,3.3,0,6,.8,8.2,2.5s3.5,4.2,3.7,7.3l.1,1.4h4.5l-.1-1.3c-.3-4.2-2-7.5-5-9.8s-6.8-3.5-11.5-3.5c-3.1,0-5.9.5-8.3,1.6-2.5,1.1-4.5,2.7-5.8,4.8-1.4,2.1-2.1,4.5-2.1,7.3,0,3,.7,5.4,2.1,7.2,1.3,1.5,2.9,2.9,4.8,3.7" fill="#172267" stroke-width="0"/>
    <path d="m706.8,443.87c-1.4-1.8-3.1-3.1-5-4-1.8-.8-4.1-1.7-7-2.5-2-.6-3.6-1.1-4.6-1.6-1-.4-1.8-.9-2.4-1.6-.5-.5-.8-1.2-.8-2,0-1.3.4-2.2,1.1-2.8.8-.7,1.8-1,3.2-1,1.6,0,2.9.4,3.9,1.2.9.7,1.4,1.7,1.4,2.8l.1,1.1h5.2l-.1-1.3c-.2-2.5-1.2-4.4-2.9-5.8s-4.1-2.1-6.9-2.1c-1.9,0-3.6.3-5,1-1.4.6-2.6,1.6-3.4,2.8-.8,1.2-1.2,2.6-1.2,4.2,0,1.7.4,3.1,1.2,4.1s1.7,1.8,2.8,2.3,2.6,1.1,4.4,1.6c.1,0,.2.1.3.1l2.3.7c.2.1.4.1.7.2,1.9.6,3.5,1.1,4.7,1.7,1.4.7,2.6,1.6,3.6,2.9,1.1,1.4,1.6,3.2,1.6,5.4,0,2-.5,3.9-1.5,5.4s-2.5,2.7-4.3,3.5c-1.7.8-3.7,1.1-5.9,1.1-3.3,0-6-.8-8.2-2.5s-3.5-4.2-3.7-7.3l-.1-1.7h-4.9v1.2c0,2.9.8,5.4,2.4,7.5,1.5,2.1,3.6,3.7,6.2,4.8,2.5,1.1,5.4,1.6,8.5,1.6,3.3,0,6.3-.6,8.7-1.9,2.5-1.3,4.4-3,5.7-5.1s2-4.5,2-7c.1-2.8-.6-5.2-2.1-7" fill="#172267" stroke-width="0"/>
    <rect x="543" y="419.37" width="4.6" height="45.2" fill="#172267" stroke-width="0"/>
    <polygon points="549.7 419.37 549.7 440.77 574.5 440.77 574.5 419.37 569.9 419.37 569.9 436.97 554 436.97 554 419.37 549.7 419.37" fill="#172267" stroke-width="0"/>
    <rect x="576.6" y="419.37" width="4.3" height="45.2" fill="#172267" stroke-width="0"/>
    <polygon points="720 424.97 720 440.57 740.6 440.57 740.6 437.07 724.4 437.07 724.4 428.67 740.6 428.67 740.6 424.97 720 424.97" fill="#172267" stroke-width="0"/>
    <polygon points="713.4 419.37 713.4 464.57 740.6 464.57 740.6 455.27 724.4 455.27 724.4 446.27 740.6 446.27 740.6 442.67 720 442.67 720 459.07 740.6 459.07 740.6 461.17 717.9 461.17 717.9 422.87 740.6 422.87 740.6 419.37 713.4 419.37" fill="#172267" stroke-width="0"/>
    <polygon points="549.7 442.77 549.7 464.57 554 464.57 554 446.37 569.9 446.37 569.9 464.57 574.5 464.57 574.5 442.77 549.7 442.77" fill="#172267" stroke-width="0"/>
  </g>
  <g>
    <path d="m904.4,245.47h47.2c.4-.1.7.2.9.5.9,2,2,4,2.9,6,4.1,9.3,7,19,9.1,28.8,1.2,5.4,2.2,10.8,2.9,16.2.6,3.9,1,7.8,1.5,11.8.5,4.3.9,8.5,1.2,12.8.3,4.5.6,9,.8,13.5.3,6.5.5,13.1.7,19.6.1,4.5.2,9.1.2,13.6.1,12.1.2,24.2.2,36.4v3.9h-21.2v-.9c0-11.7,0-23.3-.2-35-.1-8.7-.3-17.5-.6-26.2-.1-3.8-.3-7.6-.5-11.4v-.5h-24.9v73.9h-20.3c-.1-.4-.1-162,.1-163m20.3,19.7v50h23.4v-.7c-.3-3-.6-6-1-9-.7-5.5-1.6-11-2.6-16.5-1.4-6.8-3.1-13.6-5.3-20.3-.4-1.2-.9-2.4-1.3-3.6l-13.2.1h0Z" fill="#172267" stroke-width="0"/>
    <path d="m812.3,245.47h47.7c.2.6.2,18.5.1,19.7h-25.1v50h19.1c.2.6.3,17.7.1,19.4h-19.1l-.1.1v73.9h-22.5l-.2-163.1h0Z" fill="#172267" stroke-width="0"/>
    <path d="m987.1,265.17h-18v-19.7h58.6v19.7h-17.8v143.4h-22.6s-.1-95.6-.1-143.1v-.1s0,0-.1-.2" fill="#172267" stroke-width="0"/>
    <path d="m892.1,408.67h-23.2l-.1-.1v-163c.6-.2,22.6-.2,23.3,0v163.1Z" fill="#172267" stroke-width="0"/>
    <path d="m887,448.87c-1,2-2.4,3.5-4.1,4.5h0c-1.8,1-3.9,1.6-6.2,1.6s-4.4-.5-6.2-1.6c-1.8-1-3.2-2.6-4.2-4.5-1-2-1.5-4.3-1.5-7s.5-5,1.5-7c1-1.9,2.4-3.4,4.2-4.5,1.8-1,3.9-1.6,6.2-1.6s4.4.5,6.2,1.6c1.8,1,3.1,2.5,4.1,4.5s1.5,4.3,1.5,7-.5,5-1.5,7m-1.9-21.9c-2.6-1.5-5.4-2.2-8.5-2.2s-5.9.7-8.5,2.2-4.6,3.5-6.1,6.1-2.3,5.6-2.3,8.8.8,6.3,2.3,8.9,3.6,4.6,6.1,6.1c2.6,1.5,5.4,2.2,8.5,2.2s5.9-.7,8.5-2.2,4.6-3.5,6.1-6.1,2.2-5.6,2.2-8.9-.8-6.2-2.2-8.8c-1.5-2.6-3.5-4.6-6.1-6.1" fill="#172267" stroke-width="0"/>
    <path d="m893,451.77c-1.7,2.9-4,5.2-6.9,6.9-2.9,1.6-6.1,2.5-9.5,2.5s-6.6-.8-9.5-2.5c-2.9-1.6-5.2-4-6.9-6.9s-2.5-6.2-2.5-9.9.9-6.9,2.5-9.9c1.7-2.9,4-5.2,6.9-6.9,2.9-1.6,6.1-2.5,9.5-2.5s6.7.8,9.5,2.5c2.9,1.6,5.2,4,6.9,6.9s2.5,6.2,2.5,9.8c0,3.8-.8,7.1-2.5,10m3.6-21.7c-2-3.5-4.9-6.3-8.4-8.3s-7.4-3-11.7-3-8.1,1-11.6,3-6.4,4.8-8.4,8.3c-2.1,3.5-3.1,7.5-3.1,11.9s1,8.4,3.1,11.9,4.9,6.3,8.4,8.3,7.4,3,11.6,3,8.1-1,11.6-3,6.3-4.8,8.4-8.3c2-3.5,3.1-7.5,3.1-11.9.1-4.5-.9-8.4-3-11.9" fill="#172267" stroke-width="0"/>
    <path d="m909.6,419.37v28c0,2.5.5,4.7,1.6,6.4,1,1.7,2.5,3,4.3,3.9s3.8,1.3,6,1.3,4.3-.4,6.1-1.3,3.3-2.2,4.4-3.9c1.1-1.7,1.6-3.9,1.6-6.4v-28h-4.6v27.7c0,2.6-.6,4.5-1.9,5.8-1.3,1.3-3.1,1.9-5.6,1.9s-4.2-.6-5.5-1.9-1.9-3.3-1.9-5.8v-27.7h-4.5Z" fill="#172267" stroke-width="0"/>
    <path d="m935.6,419.37v28c0,2.9-.7,5.4-1.9,7.5-1.3,2.1-3.1,3.6-5.2,4.7-2.1,1-4.5,1.5-7,1.5s-4.9-.5-6.9-1.5c-2.1-1-3.9-2.6-5.1-4.7-1.2-2.1-1.9-4.6-1.9-7.5v-28h-4.4v27.6c0,3.8.8,7.2,2.4,9.8,1.6,2.7,3.9,4.8,6.7,6.1,2.7,1.3,5.8,2,9.2,2s6.5-.7,9.3-2c2.8-1.4,5.1-3.4,6.8-6.1s2.5-6,2.5-9.9v-27.6h-4.5v.1Z" fill="#172267" stroke-width="0"/>
    <path d="m952,443.57c1.8.8,4.1,1.7,7,2.5,2,.6,3.6,1.1,4.7,1.5,1,.4,1.8,1,2.5,1.6.6.6.8,1.4.8,2.3,0,1.2-.4,2.1-1.3,2.9-.9.8-2.3,1.2-4,1.2s-2.9-.4-3.8-1.2c-.9-.8-1.4-1.9-1.5-3.4l-.1-1.1h-4.5l.1,1.6c.2,2.5,1.2,4.4,2.9,5.8s4.1,2.1,6.9,2.1c1.9,0,3.6-.3,5-1,1.4-.6,2.6-1.6,3.4-2.8.8-1.2,1.2-2.6,1.2-4.2,0-1.7-.4-3.1-1.2-4.1s-1.7-1.8-2.8-2.3-2.6-1.1-4.4-1.6c-.1,0-.2-.1-.3-.1l-2.3-.7c-.2-.1-.4-.1-.7-.2-1.9-.6-3.5-1.1-4.7-1.7-1.4-.7-2.6-1.6-3.6-2.9-1.1-1.4-1.6-3.2-1.6-5.4,0-2,.5-3.9,1.5-5.4s2.5-2.7,4.3-3.5c1.7-.8,3.7-1.1,5.9-1.1,3.3,0,6,.8,8.2,2.5s3.5,4.2,3.7,7.3l.1,1.4h4.5l-.1-1.3c-.3-4.2-2-7.5-5-9.8s-6.8-3.5-11.5-3.5c-3.1,0-5.9.5-8.3,1.6-2.5,1.1-4.5,2.7-5.8,4.8-1.4,2.1-2.1,4.5-2.1,7.3,0,3,.7,5.4,2.1,7.2,1.3,1.5,2.9,2.9,4.8,3.7" fill="#172267" stroke-width="0"/>
    <path d="m976.1,443.87c-1.4-1.8-3.1-3.1-5-4-1.8-.8-4.1-1.7-7-2.5-2-.6-3.6-1.1-4.6-1.6-1-.4-1.8-.9-2.4-1.6-.5-.5-.8-1.2-.8-2,0-1.3.4-2.2,1.1-2.8.8-.7,1.8-1,3.2-1,1.6,0,2.9.4,3.9,1.2.9.7,1.4,1.7,1.4,2.8l.1,1.1h5.2l-.1-1.3c-.2-2.5-1.2-4.4-2.9-5.8s-4.1-2.1-6.9-2.1c-1.9,0-3.6.3-5,1-1.4.6-2.6,1.6-3.4,2.8-.8,1.2-1.2,2.6-1.2,4.2,0,1.7.4,3.1,1.2,4.1s1.7,1.8,2.8,2.3,2.6,1.1,4.4,1.6c.1,0,.2.1.3.1l2.3.7c.2.1.4.1.7.2,1.9.6,3.5,1.1,4.7,1.7,1.4.7,2.6,1.6,3.6,2.9,1.1,1.4,1.6,3.2,1.6,5.4,0,2-.5,3.9-1.5,5.4s-2.5,2.7-4.3,3.5c-1.7.8-3.7,1.1-5.9,1.1-3.3,0-6-.8-8.2-2.5s-3.5-4.2-3.7-7.3l-.1-1.7h-4.9v1.2c0,2.9.8,5.4,2.4,7.5,1.5,2.1,3.6,3.7,6.2,4.8,2.5,1.1,5.4,1.6,8.5,1.6,3.3,0,6.3-.6,8.7-1.9,2.5-1.3,4.4-3,5.7-5.1s2-4.5,2-7c.1-2.8-.6-5.2-2.1-7" fill="#172267" stroke-width="0"/>
    <rect x="812.3" y="419.37" width="4.6" height="45.2" fill="#172267" stroke-width="0"/>
    <polygon points="819 419.37 819 440.77 843.8 440.77 843.8 419.37 839.2 419.37 839.2 436.97 823.3 436.97 823.3 419.37 819 419.37" fill="#172267" stroke-width="0"/>
    <rect x="845.9" y="419.37" width="4.3" height="45.2" fill="#172267" stroke-width="0"/>
    <polygon points="989.3 424.97 989.3 440.57 1009.9 440.57 1009.9 437.07 993.7 437.07 993.7 428.67 1009.9 428.67 1009.9 424.97 989.3 424.97" fill="#172267" stroke-width="0"/>
    <polygon points="982.7 419.37 982.7 464.57 1009.9 464.57 1009.9 455.27 993.7 455.27 993.7 446.27 1009.9 446.27 1009.9 442.67 989.3 442.67 989.3 459.07 1009.9 459.07 1009.9 461.17 987.2 461.17 987.2 422.87 1009.9 422.87 1009.9 419.37 982.7 419.37" fill="#172267" stroke-width="0"/>
    <polygon points="819 442.77 819 464.57 823.3 464.57 823.3 446.37 839.2 446.37 839.2 464.57 843.8 464.57 843.8 442.77 819 442.77" fill="#172267" stroke-width="0"/>
  </g>
  <g>
    <path d="m635.1,492.95h47.2c.4-.1.7.2.9.5.9,2,2,4,2.9,6,4.1,9.3,7,19,9.1,28.8,1.2,5.4,2.2,10.8,2.9,16.2.6,3.9,1,7.8,1.5,11.8.5,4.3.9,8.5,1.2,12.8.3,4.5.6,9,.8,13.5.3,6.5.5,13.1.7,19.6.1,4.5.2,9.1.2,13.6.1,12.1.2,24.2.2,36.4v3.9h-21.2v-.9c0-11.7,0-23.3-.2-35-.1-8.7-.3-17.5-.6-26.2-.1-3.8-.3-7.6-.5-11.4v-.5h-24.9v73.9h-20.3c-.1-.4-.1-162,.1-163m20.3,19.7v50h23.4v-.7c-.3-3-.6-6-1-9-.7-5.5-1.6-11-2.6-16.5-1.4-6.8-3.1-13.6-5.3-20.3-.4-1.2-.9-2.4-1.3-3.6l-13.2.1h0Z" fill="#172267" stroke-width="0"/>
    <path d="m543,492.95h47.7c.2.6.2,18.5.1,19.7h-25.1v50h19.1c.2.6.3,17.7.1,19.4h-19.1l-.1.1v73.9h-22.5l-.2-163.1h0Z" fill="#172267" stroke-width="0"/>
    <path d="m717.8,512.65h-18v-19.7h58.6v19.7h-17.8v143.4h-22.6s-.1-95.6-.1-143.1v-.1s0,0-.1-.2" fill="#172267" stroke-width="0"/>
    <path d="m622.8,656.15h-23.2l-.1-.1v-163c.6-.2,22.6-.2,23.3,0v163.1Z" fill="#172267" stroke-width="0"/>
    <path d="m617.7,696.35c-1,2-2.4,3.5-4.1,4.5h0c-1.8,1-3.9,1.6-6.2,1.6s-4.4-.5-6.2-1.6c-1.8-1-3.2-2.6-4.2-4.5-1-2-1.5-4.3-1.5-7s.5-5,1.5-7c1-1.9,2.4-3.4,4.2-4.5,1.8-1,3.9-1.6,6.2-1.6s4.4.5,6.2,1.6c1.8,1,3.1,2.5,4.1,4.5s1.5,4.3,1.5,7-.5,5-1.5,7m-1.9-21.9c-2.6-1.5-5.4-2.2-8.5-2.2s-5.9.7-8.5,2.2-4.6,3.5-6.1,6.1-2.3,5.6-2.3,8.8.8,6.3,2.3,8.9,3.6,4.6,6.1,6.1c2.6,1.5,5.4,2.2,8.5,2.2s5.9-.7,8.5-2.2,4.6-3.5,6.1-6.1,2.2-5.6,2.2-8.9-.8-6.2-2.2-8.8c-1.5-2.6-3.5-4.6-6.1-6.1" fill="#172267" stroke-width="0"/>
    <path d="m623.7,699.25c-1.7,2.9-4,5.2-6.9,6.9-2.9,1.6-6.1,2.5-9.5,2.5s-6.6-.8-9.5-2.5c-2.9-1.6-5.2-4-6.9-6.9s-2.5-6.2-2.5-9.9.9-6.9,2.5-9.9c1.7-2.9,4-5.2,6.9-6.9,2.9-1.6,6.1-2.5,9.5-2.5s6.7.8,9.5,2.5c2.9,1.6,5.2,4,6.9,6.9s2.5,6.2,2.5,9.8c0,3.8-.8,7.1-2.5,10m3.6-21.7c-2-3.5-4.9-6.3-8.4-8.3s-7.4-3-11.7-3-8.1,1-11.6,3-6.4,4.8-8.4,8.3c-2.1,3.5-3.1,7.5-3.1,11.9s1,8.4,3.1,11.9,4.9,6.3,8.4,8.3,7.4,3,11.6,3,8.1-1,11.6-3,6.3-4.8,8.4-8.3c2-3.5,3.1-7.5,3.1-11.9.1-4.5-.9-8.4-3-11.9" fill="#172267" stroke-width="0"/>
    <path d="m640.3,666.85v28c0,2.5.5,4.7,1.6,6.4,1,1.7,2.5,3,4.3,3.9s3.8,1.3,6,1.3,4.3-.4,6.1-1.3,3.3-2.2,4.4-3.9c1.1-1.7,1.6-3.9,1.6-6.4v-28h-4.6v27.7c0,2.6-.6,4.5-1.9,5.8-1.3,1.3-3.1,1.9-5.6,1.9s-4.2-.6-5.5-1.9-1.9-3.3-1.9-5.8v-27.7h-4.5Z" fill="#172267" stroke-width="0"/>
    <path d="m666.3,666.85v28c0,2.9-.7,5.4-1.9,7.5-1.3,2.1-3.1,3.6-5.2,4.7-2.1,1-4.5,1.5-7,1.5s-4.9-.5-6.9-1.5c-2.1-1-3.9-2.6-5.1-4.7-1.2-2.1-1.9-4.6-1.9-7.5v-28h-4.4v27.6c0,3.8.8,7.2,2.4,9.8,1.6,2.7,3.9,4.8,6.7,6.1,2.7,1.3,5.8,2,9.2,2s6.5-.7,9.3-2c2.8-1.4,5.1-3.4,6.8-6.1s2.5-6,2.5-9.9v-27.6h-4.5v.1Z" fill="#172267" stroke-width="0"/>
    <path d="m682.7,691.05c1.8.8,4.1,1.7,7,2.5,2,.6,3.6,1.1,4.7,1.5,1,.4,1.8,1,2.5,1.6.6.6.8,1.4.8,2.3,0,1.2-.4,2.1-1.3,2.9-.9.8-2.3,1.2-4,1.2s-2.9-.4-3.8-1.2c-.9-.8-1.4-1.9-1.5-3.4l-.1-1.1h-4.5l.1,1.6c.2,2.5,1.2,4.4,2.9,5.8s4.1,2.1,6.9,2.1c1.9,0,3.6-.3,5-1,1.4-.6,2.6-1.6,3.4-2.8.8-1.2,1.2-2.6,1.2-4.2,0-1.7-.4-3.1-1.2-4.1s-1.7-1.8-2.8-2.3-2.6-1.1-4.4-1.6c-.1,0-.2-.1-.3-.1l-2.3-.7c-.2-.1-.4-.1-.7-.2-1.9-.6-3.5-1.1-4.7-1.7-1.4-.7-2.6-1.6-3.6-2.9-1.1-1.4-1.6-3.2-1.6-5.4,0-2,.5-3.9,1.5-5.4s2.5-2.7,4.3-3.5c1.7-.8,3.7-1.1,5.9-1.1,3.3,0,6,.8,8.2,2.5s3.5,4.2,3.7,7.3l.1,1.4h4.5l-.1-1.3c-.3-4.2-2-7.5-5-9.8s-6.8-3.5-11.5-3.5c-3.1,0-5.9.5-8.3,1.6-2.5,1.1-4.5,2.7-5.8,4.8-1.4,2.1-2.1,4.5-2.1,7.3,0,3,.7,5.4,2.1,7.2,1.3,1.5,2.9,2.9,4.8,3.7" fill="#172267" stroke-width="0"/>
    <path d="m706.8,691.35c-1.4-1.8-3.1-3.1-5-4-1.8-.8-4.1-1.7-7-2.5-2-.6-3.6-1.1-4.6-1.6-1-.4-1.8-.9-2.4-1.6-.5-.5-.8-1.2-.8-2,0-1.3.4-2.2,1.1-2.8.8-.7,1.8-1,3.2-1,1.6,0,2.9.4,3.9,1.2.9.7,1.4,1.7,1.4,2.8l.1,1.1h5.2l-.1-1.3c-.2-2.5-1.2-4.4-2.9-5.8s-4.1-2.1-6.9-2.1c-1.9,0-3.6.3-5,1-1.4.6-2.6,1.6-3.4,2.8-.8,1.2-1.2,2.6-1.2,4.2,0,1.7.4,3.1,1.2,4.1s1.7,1.8,2.8,2.3,2.6,1.1,4.4,1.6c.1,0,.2.1.3.1l2.3.7c.2.1.4.1.7.2,1.9.6,3.5,1.1,4.7,1.7,1.4.7,2.6,1.6,3.6,2.9,1.1,1.4,1.6,3.2,1.6,5.4,0,2-.5,3.9-1.5,5.4s-2.5,2.7-4.3,3.5c-1.7.8-3.7,1.1-5.9,1.1-3.3,0-6-.8-8.2-2.5s-3.5-4.2-3.7-7.3l-.1-1.7h-4.9v1.2c0,2.9.8,5.4,2.4,7.5,1.5,2.1,3.6,3.7,6.2,4.8,2.5,1.1,5.4,1.6,8.5,1.6,3.3,0,6.3-.6,8.7-1.9,2.5-1.3,4.4-3,5.7-5.1s2-4.5,2-7c.1-2.8-.6-5.2-2.1-7" fill="#172267" stroke-width="0"/>
    <rect x="543" y="666.85" width="4.6" height="45.2" fill="#172267" stroke-width="0"/>
    <polygon points="549.7 666.85 549.7 688.25 574.5 688.25 574.5 666.85 569.9 666.85 569.9 684.45 554 684.45 554 666.85 549.7 666.85" fill="#172267" stroke-width="0"/>
    <rect x="576.6" y="666.85" width="4.3" height="45.2" fill="#172267" stroke-width="0"/>
    <polygon points="720 672.45 720 688.05 740.6 688.05 740.6 684.55 724.4 684.55 724.4 676.15 740.6 676.15 740.6 672.45 720 672.45" fill="#172267" stroke-width="0"/>
    <polygon points="713.4 666.85 713.4 712.05 740.6 712.05 740.6 702.75 724.4 702.75 724.4 693.75 740.6 693.75 740.6 690.15 720 690.15 720 706.55 740.6 706.55 740.6 708.65 717.9 708.65 717.9 670.35 740.6 670.35 740.6 666.85 713.4 666.85" fill="#172267" stroke-width="0"/>
    <polygon points="549.7 690.25 549.7 712.05 554 712.05 554 693.85 569.9 693.85 569.9 712.05 574.5 712.05 574.5 690.25 549.7 690.25" fill="#172267" stroke-width="0"/>
  </g>
  <g>
    <path d="m904.4,492.95h47.2c.4-.1.7.2.9.5.9,2,2,4,2.9,6,4.1,9.3,7,19,9.1,28.8,1.2,5.4,2.2,10.8,2.9,16.2.6,3.9,1,7.8,1.5,11.8.5,4.3.9,8.5,1.2,12.8.3,4.5.6,9,.8,13.5.3,6.5.5,13.1.7,19.6.1,4.5.2,9.1.2,13.6.1,12.1.2,24.2.2,36.4v3.9h-21.2v-.9c0-11.7,0-23.3-.2-35-.1-8.7-.3-17.5-.6-26.2-.1-3.8-.3-7.6-.5-11.4v-.5h-24.9v73.9h-20.3c-.1-.4-.1-162,.1-163m20.3,19.7v50h23.4v-.7c-.3-3-.6-6-1-9-.7-5.5-1.6-11-2.6-16.5-1.4-6.8-3.1-13.6-5.3-20.3-.4-1.2-.9-2.4-1.3-3.6l-13.2.1h0Z" fill="#172267" stroke-width="0"/>
    <path d="m812.3,492.95h47.7c.2.6.2,18.5.1,19.7h-25.1v50h19.1c.2.6.3,17.7.1,19.4h-19.1l-.1.1v73.9h-22.5l-.2-163.1h0Z" fill="#172267" stroke-width="0"/>
    <path d="m987.1,512.65h-18v-19.7h58.6v19.7h-17.8v143.4h-22.6s-.1-95.6-.1-143.1v-.1s0,0-.1-.2" fill="#172267" stroke-width="0"/>
    <path d="m892.1,656.15h-23.2l-.1-.1v-163c.6-.2,22.6-.2,23.3,0v163.1Z" fill="#172267" stroke-width="0"/>
    <path d="m887,696.35c-1,2-2.4,3.5-4.1,4.5h0c-1.8,1-3.9,1.6-6.2,1.6s-4.4-.5-6.2-1.6c-1.8-1-3.2-2.6-4.2-4.5-1-2-1.5-4.3-1.5-7s.5-5,1.5-7c1-1.9,2.4-3.4,4.2-4.5,1.8-1,3.9-1.6,6.2-1.6s4.4.5,6.2,1.6c1.8,1,3.1,2.5,4.1,4.5s1.5,4.3,1.5,7-.5,5-1.5,7m-1.9-21.9c-2.6-1.5-5.4-2.2-8.5-2.2s-5.9.7-8.5,2.2-4.6,3.5-6.1,6.1-2.3,5.6-2.3,8.8.8,6.3,2.3,8.9,3.6,4.6,6.1,6.1c2.6,1.5,5.4,2.2,8.5,2.2s5.9-.7,8.5-2.2,4.6-3.5,6.1-6.1,2.2-5.6,2.2-8.9-.8-6.2-2.2-8.8c-1.5-2.6-3.5-4.6-6.1-6.1" fill="#172267" stroke-width="0"/>
    <path d="m893,699.25c-1.7,2.9-4,5.2-6.9,6.9-2.9,1.6-6.1,2.5-9.5,2.5s-6.6-.8-9.5-2.5c-2.9-1.6-5.2-4-6.9-6.9s-2.5-6.2-2.5-9.9.9-6.9,2.5-9.9c1.7-2.9,4-5.2,6.9-6.9,2.9-1.6,6.1-2.5,9.5-2.5s6.7.8,9.5,2.5c2.9,1.6,5.2,4,6.9,6.9s2.5,6.2,2.5,9.8c0,3.8-.8,7.1-2.5,10m3.6-21.7c-2-3.5-4.9-6.3-8.4-8.3s-7.4-3-11.7-3-8.1,1-11.6,3-6.4,4.8-8.4,8.3c-2.1,3.5-3.1,7.5-3.1,11.9s1,8.4,3.1,11.9,4.9,6.3,8.4,8.3,7.4,3,11.6,3,8.1-1,11.6-3,6.3-4.8,8.4-8.3c2-3.5,3.1-7.5,3.1-11.9.1-4.5-.9-8.4-3-11.9" fill="#172267" stroke-width="0"/>
    <path d="m909.6,666.85v28c0,2.5.5,4.7,1.6,6.4,1,1.7,2.5,3,4.3,3.9s3.8,1.3,6,1.3,4.3-.4,6.1-1.3,3.3-2.2,4.4-3.9c1.1-1.7,1.6-3.9,1.6-6.4v-28h-4.6v27.7c0,2.6-.6,4.5-1.9,5.8-1.3,1.3-3.1,1.9-5.6,1.9s-4.2-.6-5.5-1.9-1.9-3.3-1.9-5.8v-27.7h-4.5Z" fill="#172267" stroke-width="0"/>
    <path d="m935.6,666.85v28c0,2.9-.7,5.4-1.9,7.5-1.3,2.1-3.1,3.6-5.2,4.7-2.1,1-4.5,1.5-7,1.5s-4.9-.5-6.9-1.5c-2.1-1-3.9-2.6-5.1-4.7-1.2-2.1-1.9-4.6-1.9-7.5v-28h-4.4v27.6c0,3.8.8,7.2,2.4,9.8,1.6,2.7,3.9,4.8,6.7,6.1,2.7,1.3,5.8,2,9.2,2s6.5-.7,9.3-2c2.8-1.4,5.1-3.4,6.8-6.1s2.5-6,2.5-9.9v-27.6h-4.5v.1Z" fill="#172267" stroke-width="0"/>
    <path d="m952,691.05c1.8.8,4.1,1.7,7,2.5,2,.6,3.6,1.1,4.7,1.5,1,.4,1.8,1,2.5,1.6.6.6.8,1.4.8,2.3,0,1.2-.4,2.1-1.3,2.9-.9.8-2.3,1.2-4,1.2s-2.9-.4-3.8-1.2c-.9-.8-1.4-1.9-1.5-3.4l-.1-1.1h-4.5l.1,1.6c.2,2.5,1.2,4.4,2.9,5.8s4.1,2.1,6.9,2.1c1.9,0,3.6-.3,5-1,1.4-.6,2.6-1.6,3.4-2.8.8-1.2,1.2-2.6,1.2-4.2,0-1.7-.4-3.1-1.2-4.1s-1.7-1.8-2.8-2.3-2.6-1.1-4.4-1.6c-.1,0-.2-.1-.3-.1l-2.3-.7c-.2-.1-.4-.1-.7-.2-1.9-.6-3.5-1.1-4.7-1.7-1.4-.7-2.6-1.6-3.6-2.9-1.1-1.4-1.6-3.2-1.6-5.4,0-2,.5-3.9,1.5-5.4s2.5-2.7,4.3-3.5c1.7-.8,3.7-1.1,5.9-1.1,3.3,0,6,.8,8.2,2.5s3.5,4.2,3.7,7.3l.1,1.4h4.5l-.1-1.3c-.3-4.2-2-7.5-5-9.8s-6.8-3.5-11.5-3.5c-3.1,0-5.9.5-8.3,1.6-2.5,1.1-4.5,2.7-5.8,4.8-1.4,2.1-2.1,4.5-2.1,7.3,0,3,.7,5.4,2.1,7.2,1.3,1.5,2.9,2.9,4.8,3.7" fill="#172267" stroke-width="0"/>
    <path d="m976.1,691.35c-1.4-1.8-3.1-3.1-5-4-1.8-.8-4.1-1.7-7-2.5-2-.6-3.6-1.1-4.6-1.6-1-.4-1.8-.9-2.4-1.6-.5-.5-.8-1.2-.8-2,0-1.3.4-2.2,1.1-2.8.8-.7,1.8-1,3.2-1,1.6,0,2.9.4,3.9,1.2.9.7,1.4,1.7,1.4,2.8l.1,1.1h5.2l-.1-1.3c-.2-2.5-1.2-4.4-2.9-5.8s-4.1-2.1-6.9-2.1c-1.9,0-3.6.3-5,1-1.4.6-2.6,1.6-3.4,2.8-.8,1.2-1.2,2.6-1.2,4.2,0,1.7.4,3.1,1.2,4.1s1.7,1.8,2.8,2.3,2.6,1.1,4.4,1.6c.1,0,.2.1.3.1l2.3.7c.2.1.4.1.7.2,1.9.6,3.5,1.1,4.7,1.7,1.4.7,2.6,1.6,3.6,2.9,1.1,1.4,1.6,3.2,1.6,5.4,0,2-.5,3.9-1.5,5.4s-2.5,2.7-4.3,3.5c-1.7.8-3.7,1.1-5.9,1.1-3.3,0-6-.8-8.2-2.5s-3.5-4.2-3.7-7.3l-.1-1.7h-4.9v1.2c0,2.9.8,5.4,2.4,7.5,1.5,2.1,3.6,3.7,6.2,4.8,2.5,1.1,5.4,1.6,8.5,1.6,3.3,0,6.3-.6,8.7-1.9,2.5-1.3,4.4-3,5.7-5.1s2-4.5,2-7c.1-2.8-.6-5.2-2.1-7" fill="#172267" stroke-width="0"/>
    <rect x="812.3" y="666.85" width="4.6" height="45.2" fill="#172267" stroke-width="0"/>
    <polygon points="819 666.85 819 688.25 843.8 688.25 843.8 666.85 839.2 666.85 839.2 684.45 823.3 684.45 823.3 666.85 819 666.85" fill="#172267" stroke-width="0"/>
    <rect x="845.9" y="666.85" width="4.3" height="45.2" fill="#172267" stroke-width="0"/>
    <polygon points="989.3 672.45 989.3 688.05 1009.9 688.05 1009.9 684.55 993.7 684.55 993.7 676.15 1009.9 676.15 1009.9 672.45 989.3 672.45" fill="#172267" stroke-width="0"/>
    <polygon points="982.7 666.85 982.7 712.05 1009.9 712.05 1009.9 702.75 993.7 702.75 993.7 693.75 1009.9 693.75 1009.9 690.15 989.3 690.15 989.3 706.55 1009.9 706.55 1009.9 708.65 987.2 708.65 987.2 670.35 1009.9 670.35 1009.9 666.85 982.7 666.85" fill="#172267" stroke-width="0"/>
    <polygon points="819 690.25 819 712.05 823.3 712.05 823.3 693.85 839.2 693.85 839.2 712.05 843.8 712.05 843.8 690.25 819 690.25" fill="#172267" stroke-width="0"/>
  </g>
  <g>
    <path d="m904.4,740.5h47.2c.4-.1.7.2.9.5.9,2,2,4,2.9,6,4.1,9.3,7,19,9.1,28.8,1.2,5.4,2.2,10.8,2.9,16.2.6,3.9,1,7.8,1.5,11.8.5,4.3.9,8.5,1.2,12.8.3,4.5.6,9,.8,13.5.3,6.5.5,13.1.7,19.6.1,4.5.2,9.1.2,13.6.1,12.1.2,24.2.2,36.4v3.9h-21.2v-.9c0-11.7,0-23.3-.2-35-.1-8.7-.3-17.5-.6-26.2-.1-3.8-.3-7.6-.5-11.4v-.5h-24.9v73.9h-20.3c-.1-.4-.1-162,.1-163m20.3,19.7v50h23.4v-.7c-.3-3-.6-6-1-9-.7-5.5-1.6-11-2.6-16.5-1.4-6.8-3.1-13.6-5.3-20.3-.4-1.2-.9-2.4-1.3-3.6l-13.2.1h0Z" fill="#172267" stroke-width="0"/>
    <path d="m812.3,740.5h47.7c.2.6.2,18.5.1,19.7h-25.1v50h19.1c.2.6.3,17.7.1,19.4h-19.1l-.1.1v73.9h-22.5l-.2-163.1h0Z" fill="#172267" stroke-width="0"/>
    <path d="m987.1,760.2h-18v-19.7h58.6v19.7h-17.8v143.4h-22.6s-.1-95.6-.1-143.1v-.1s0,0-.1-.2" fill="#172267" stroke-width="0"/>
    <path d="m892.1,903.7h-23.2l-.1-.1v-163c.6-.2,22.6-.2,23.3,0v163.1Z" fill="#172267" stroke-width="0"/>
    <path d="m887,943.9c-1,2-2.4,3.5-4.1,4.5h0c-1.8,1-3.9,1.6-6.2,1.6s-4.4-.5-6.2-1.6c-1.8-1-3.2-2.6-4.2-4.5-1-2-1.5-4.3-1.5-7s.5-5,1.5-7c1-1.9,2.4-3.4,4.2-4.5,1.8-1,3.9-1.6,6.2-1.6s4.4.5,6.2,1.6c1.8,1,3.1,2.5,4.1,4.5s1.5,4.3,1.5,7-.5,5-1.5,7m-1.9-21.9c-2.6-1.5-5.4-2.2-8.5-2.2s-5.9.7-8.5,2.2-4.6,3.5-6.1,6.1-2.3,5.6-2.3,8.8.8,6.3,2.3,8.9,3.6,4.6,6.1,6.1c2.6,1.5,5.4,2.2,8.5,2.2s5.9-.7,8.5-2.2,4.6-3.5,6.1-6.1,2.2-5.6,2.2-8.9-.8-6.2-2.2-8.8c-1.5-2.6-3.5-4.6-6.1-6.1" fill="#172267" stroke-width="0"/>
    <path d="m893,946.8c-1.7,2.9-4,5.2-6.9,6.9-2.9,1.6-6.1,2.5-9.5,2.5s-6.6-.8-9.5-2.5c-2.9-1.6-5.2-4-6.9-6.9s-2.5-6.2-2.5-9.9.9-6.9,2.5-9.9c1.7-2.9,4-5.2,6.9-6.9,2.9-1.6,6.1-2.5,9.5-2.5s6.7.8,9.5,2.5c2.9,1.6,5.2,4,6.9,6.9s2.5,6.2,2.5,9.8c0,3.8-.8,7.1-2.5,10m3.6-21.7c-2-3.5-4.9-6.3-8.4-8.3s-7.4-3-11.7-3-8.1,1-11.6,3-6.4,4.8-8.4,8.3c-2.1,3.5-3.1,7.5-3.1,11.9s1,8.4,3.1,11.9,4.9,6.3,8.4,8.3,7.4,3,11.6,3,8.1-1,11.6-3,6.3-4.8,8.4-8.3c2-3.5,3.1-7.5,3.1-11.9.1-4.5-.9-8.4-3-11.9" fill="#172267" stroke-width="0"/>
    <path d="m909.6,914.4v28c0,2.5.5,4.7,1.6,6.4,1,1.7,2.5,3,4.3,3.9s3.8,1.3,6,1.3,4.3-.4,6.1-1.3,3.3-2.2,4.4-3.9c1.1-1.7,1.6-3.9,1.6-6.4v-28h-4.6v27.7c0,2.6-.6,4.5-1.9,5.8-1.3,1.3-3.1,1.9-5.6,1.9s-4.2-.6-5.5-1.9-1.9-3.3-1.9-5.8v-27.7h-4.5Z" fill="#172267" stroke-width="0"/>
    <path d="m935.6,914.4v28c0,2.9-.7,5.4-1.9,7.5-1.3,2.1-3.1,3.6-5.2,4.7-2.1,1-4.5,1.5-7,1.5s-4.9-.5-6.9-1.5c-2.1-1-3.9-2.6-5.1-4.7-1.2-2.1-1.9-4.6-1.9-7.5v-28h-4.4v27.6c0,3.8.8,7.2,2.4,9.8,1.6,2.7,3.9,4.8,6.7,6.1,2.7,1.3,5.8,2,9.2,2s6.5-.7,9.3-2c2.8-1.4,5.1-3.4,6.8-6.1s2.5-6,2.5-9.9v-27.6h-4.5v.1Z" fill="#172267" stroke-width="0"/>
    <path d="m952,938.6c1.8.8,4.1,1.7,7,2.5,2,.6,3.6,1.1,4.7,1.5,1,.4,1.8,1,2.5,1.6.6.6.8,1.4.8,2.3,0,1.2-.4,2.1-1.3,2.9-.9.8-2.3,1.2-4,1.2s-2.9-.4-3.8-1.2c-.9-.8-1.4-1.9-1.5-3.4l-.1-1.1h-4.5l.1,1.6c.2,2.5,1.2,4.4,2.9,5.8s4.1,2.1,6.9,2.1c1.9,0,3.6-.3,5-1,1.4-.6,2.6-1.6,3.4-2.8.8-1.2,1.2-2.6,1.2-4.2,0-1.7-.4-3.1-1.2-4.1s-1.7-1.8-2.8-2.3-2.6-1.1-4.4-1.6c-.1,0-.2-.1-.3-.1l-2.3-.7c-.2-.1-.4-.1-.7-.2-1.9-.6-3.5-1.1-4.7-1.7-1.4-.7-2.6-1.6-3.6-2.9-1.1-1.4-1.6-3.2-1.6-5.4,0-2,.5-3.9,1.5-5.4s2.5-2.7,4.3-3.5c1.7-.8,3.7-1.1,5.9-1.1,3.3,0,6,.8,8.2,2.5s3.5,4.2,3.7,7.3l.1,1.4h4.5l-.1-1.3c-.3-4.2-2-7.5-5-9.8s-6.8-3.5-11.5-3.5c-3.1,0-5.9.5-8.3,1.6-2.5,1.1-4.5,2.7-5.8,4.8-1.4,2.1-2.1,4.5-2.1,7.3,0,3,.7,5.4,2.1,7.2,1.3,1.5,2.9,2.9,4.8,3.7" fill="#172267" stroke-width="0"/>
    <path d="m976.1,938.9c-1.4-1.8-3.1-3.1-5-4-1.8-.8-4.1-1.7-7-2.5-2-.6-3.6-1.1-4.6-1.6-1-.4-1.8-.9-2.4-1.6-.5-.5-.8-1.2-.8-2,0-1.3.4-2.2,1.1-2.8.8-.7,1.8-1,3.2-1,1.6,0,2.9.4,3.9,1.2.9.7,1.4,1.7,1.4,2.8l.1,1.1h5.2l-.1-1.3c-.2-2.5-1.2-4.4-2.9-5.8s-4.1-2.1-6.9-2.1c-1.9,0-3.6.3-5,1-1.4.6-2.6,1.6-3.4,2.8-.8,1.2-1.2,2.6-1.2,4.2,0,1.7.4,3.1,1.2,4.1s1.7,1.8,2.8,2.3,2.6,1.1,4.4,1.6c.1,0,.2.1.3.1l2.3.7c.2.1.4.1.7.2,1.9.6,3.5,1.1,4.7,1.7,1.4.7,2.6,1.6,3.6,2.9,1.1,1.4,1.6,3.2,1.6,5.4,0,2-.5,3.9-1.5,5.4s-2.5,2.7-4.3,3.5c-1.7.8-3.7,1.1-5.9,1.1-3.3,0-6-.8-8.2-2.5s-3.5-4.2-3.7-7.3l-.1-1.7h-4.9v1.2c0,2.9.8,5.4,2.4,7.5,1.5,2.1,3.6,3.7,6.2,4.8,2.5,1.1,5.4,1.6,8.5,1.6,3.3,0,6.3-.6,8.7-1.9,2.5-1.3,4.4-3,5.7-5.1s2-4.5,2-7c.1-2.8-.6-5.2-2.1-7" fill="#172267" stroke-width="0"/>
    <rect x="812.3" y="914.4" width="4.6" height="45.2" fill="#172267" stroke-width="0"/>
    <polygon points="819 914.4 819 935.8 843.8 935.8 843.8 914.4 839.2 914.4 839.2 932 823.3 932 823.3 914.4 819 914.4" fill="#172267" stroke-width="0"/>
    <rect x="845.9" y="914.4" width="4.3" height="45.2" fill="#172267" stroke-width="0"/>
    <polygon points="989.3 920 989.3 935.6 1009.9 935.6 1009.9 932.1 993.7 932.1 993.7 923.7 1009.9 923.7 1009.9 920 989.3 920" fill="#172267" stroke-width="0"/>
    <polygon points="982.7 914.4 982.7 959.6 1009.9 959.6 1009.9 950.3 993.7 950.3 993.7 941.3 1009.9 941.3 1009.9 937.7 989.3 937.7 989.3 954.1 1009.9 954.1 1009.9 956.2 987.2 956.2 987.2 917.9 1009.9 917.9 1009.9 914.4 982.7 914.4" fill="#172267" stroke-width="0"/>
    <polygon points="819 937.8 819 959.6 823.3 959.6 823.3 941.4 839.2 941.4 839.2 959.6 843.8 959.6 843.8 937.8 819 937.8" fill="#172267" stroke-width="0"/>
  </g>
  <g>
    <path d="m635.1,988.2h47.2c.4-.1.7.2.9.5.9,2,2,4,2.9,6,4.1,9.3,7,19,9.1,28.8,1.2,5.4,2.2,10.8,2.9,16.2.6,3.9,1,7.8,1.5,11.8.5,4.3.9,8.5,1.2,12.8.3,4.5.6,9,.8,13.5.3,6.5.5,13.1.7,19.6.1,4.5.2,9.1.2,13.6.1,12.1.2,24.2.2,36.4v3.9h-21.2v-.9c0-11.7,0-23.3-.2-35-.1-8.7-.3-17.5-.6-26.2-.1-3.8-.3-7.6-.5-11.4v-.5h-24.9v73.9h-20.3c-.1-.4-.1-162,.1-163m20.3,19.7v50h23.4v-.7c-.3-3-.6-6-1-9-.7-5.5-1.6-11-2.6-16.5-1.4-6.8-3.1-13.6-5.3-20.3-.4-1.2-.9-2.4-1.3-3.6l-13.2.1h0Z" fill="#172267" stroke-width="0"/>
    <path d="m543,988.2h47.7c.2.6.2,18.5.1,19.7h-25.1v50h19.1c.2.6.3,17.7.1,19.4h-19.1l-.1.1v73.9h-22.5l-.2-163.1h0Z" fill="#172267" stroke-width="0"/>
    <path d="m717.8,1007.9h-18v-19.7h58.6v19.7h-17.8v143.4h-22.6s-.1-95.6-.1-143.1v-.1s0,0-.1-.2" fill="#172267" stroke-width="0"/>
    <path d="m622.8,1151.4h-23.2l-.1-.1v-163c.6-.2,22.6-.2,23.3,0v163.1Z" fill="#172267" stroke-width="0"/>
    <path d="m617.7,1191.6c-1,2-2.4,3.5-4.1,4.5h0c-1.8,1-3.9,1.6-6.2,1.6s-4.4-.5-6.2-1.6c-1.8-1-3.2-2.6-4.2-4.5-1-2-1.5-4.3-1.5-7s.5-5,1.5-7c1-1.9,2.4-3.4,4.2-4.5,1.8-1,3.9-1.6,6.2-1.6s4.4.5,6.2,1.6c1.8,1,3.1,2.5,4.1,4.5s1.5,4.3,1.5,7-.5,5-1.5,7m-1.9-21.9c-2.6-1.5-5.4-2.2-8.5-2.2s-5.9.7-8.5,2.2-4.6,3.5-6.1,6.1-2.3,5.6-2.3,8.8.8,6.3,2.3,8.9,3.6,4.6,6.1,6.1c2.6,1.5,5.4,2.2,8.5,2.2s5.9-.7,8.5-2.2,4.6-3.5,6.1-6.1,2.2-5.6,2.2-8.9-.8-6.2-2.2-8.8c-1.5-2.6-3.5-4.6-6.1-6.1" fill="#172267" stroke-width="0"/>
    <path d="m623.7,1194.5c-1.7,2.9-4,5.2-6.9,6.9-2.9,1.6-6.1,2.5-9.5,2.5s-6.6-.8-9.5-2.5c-2.9-1.6-5.2-4-6.9-6.9s-2.5-6.2-2.5-9.9.9-6.9,2.5-9.9c1.7-2.9,4-5.2,6.9-6.9,2.9-1.6,6.1-2.5,9.5-2.5s6.7.8,9.5,2.5c2.9,1.6,5.2,4,6.9,6.9s2.5,6.2,2.5,9.8c0,3.8-.8,7.1-2.5,10m3.6-21.7c-2-3.5-4.9-6.3-8.4-8.3s-7.4-3-11.7-3-8.1,1-11.6,3-6.4,4.8-8.4,8.3c-2.1,3.5-3.1,7.5-3.1,11.9s1,8.4,3.1,11.9,4.9,6.3,8.4,8.3,7.4,3,11.6,3,8.1-1,11.6-3,6.3-4.8,8.4-8.3c2-3.5,3.1-7.5,3.1-11.9.1-4.5-.9-8.4-3-11.9" fill="#172267" stroke-width="0"/>
    <path d="m640.3,1162.1v28c0,2.5.5,4.7,1.6,6.4,1,1.7,2.5,3,4.3,3.9s3.8,1.3,6,1.3,4.3-.4,6.1-1.3,3.3-2.2,4.4-3.9c1.1-1.7,1.6-3.9,1.6-6.4v-28h-4.6v27.7c0,2.6-.6,4.5-1.9,5.8-1.3,1.3-3.1,1.9-5.6,1.9s-4.2-.6-5.5-1.9-1.9-3.3-1.9-5.8v-27.7h-4.5Z" fill="#172267" stroke-width="0"/>
    <path d="m666.3,1162.1v28c0,2.9-.7,5.4-1.9,7.5-1.3,2.1-3.1,3.6-5.2,4.7-2.1,1-4.5,1.5-7,1.5s-4.9-.5-6.9-1.5c-2.1-1-3.9-2.6-5.1-4.7-1.2-2.1-1.9-4.6-1.9-7.5v-28h-4.4v27.6c0,3.8.8,7.2,2.4,9.8,1.6,2.7,3.9,4.8,6.7,6.1,2.7,1.3,5.8,2,9.2,2s6.5-.7,9.3-2c2.8-1.4,5.1-3.4,6.8-6.1s2.5-6,2.5-9.9v-27.6h-4.5v.1Z" fill="#172267" stroke-width="0"/>
    <path d="m682.7,1186.3c1.8.8,4.1,1.7,7,2.5,2,.6,3.6,1.1,4.7,1.5,1,.4,1.8,1,2.5,1.6.6.6.8,1.4.8,2.3,0,1.2-.4,2.1-1.3,2.9-.9.8-2.3,1.2-4,1.2s-2.9-.4-3.8-1.2c-.9-.8-1.4-1.9-1.5-3.4l-.1-1.1h-4.5l.1,1.6c.2,2.5,1.2,4.4,2.9,5.8s4.1,2.1,6.9,2.1c1.9,0,3.6-.3,5-1,1.4-.6,2.6-1.6,3.4-2.8.8-1.2,1.2-2.6,1.2-4.2,0-1.7-.4-3.1-1.2-4.1s-1.7-1.8-2.8-2.3-2.6-1.1-4.4-1.6c-.1,0-.2-.1-.3-.1l-2.3-.7c-.2-.1-.4-.1-.7-.2-1.9-.6-3.5-1.1-4.7-1.7-1.4-.7-2.6-1.6-3.6-2.9-1.1-1.4-1.6-3.2-1.6-5.4,0-2,.5-3.9,1.5-5.4s2.5-2.7,4.3-3.5c1.7-.8,3.7-1.1,5.9-1.1,3.3,0,6,.8,8.2,2.5s3.5,4.2,3.7,7.3l.1,1.4h4.5l-.1-1.3c-.3-4.2-2-7.5-5-9.8s-6.8-3.5-11.5-3.5c-3.1,0-5.9.5-8.3,1.6-2.5,1.1-4.5,2.7-5.8,4.8-1.4,2.1-2.1,4.5-2.1,7.3,0,3,.7,5.4,2.1,7.2,1.3,1.5,2.9,2.9,4.8,3.7" fill="#172267" stroke-width="0"/>
    <path d="m706.8,1186.6c-1.4-1.8-3.1-3.1-5-4-1.8-.8-4.1-1.7-7-2.5-2-.6-3.6-1.1-4.6-1.6-1-.4-1.8-.9-2.4-1.6-.5-.5-.8-1.2-.8-2,0-1.3.4-2.2,1.1-2.8.8-.7,1.8-1,3.2-1,1.6,0,2.9.4,3.9,1.2.9.7,1.4,1.7,1.4,2.8l.1,1.1h5.2l-.1-1.3c-.2-2.5-1.2-4.4-2.9-5.8s-4.1-2.1-6.9-2.1c-1.9,0-3.6.3-5,1-1.4.6-2.6,1.6-3.4,2.8-.8,1.2-1.2,2.6-1.2,4.2,0,1.7.4,3.1,1.2,4.1s1.7,1.8,2.8,2.3,2.6,1.1,4.4,1.6c.1,0,.2.1.3.1l2.3.7c.2.1.4.1.7.2,1.9.6,3.5,1.1,4.7,1.7,1.4.7,2.6,1.6,3.6,2.9,1.1,1.4,1.6,3.2,1.6,5.4,0,2-.5,3.9-1.5,5.4s-2.5,2.7-4.3,3.5c-1.7.8-3.7,1.1-5.9,1.1-3.3,0-6-.8-8.2-2.5s-3.5-4.2-3.7-7.3l-.1-1.7h-4.9v1.2c0,2.9.8,5.4,2.4,7.5,1.5,2.1,3.6,3.7,6.2,4.8,2.5,1.1,5.4,1.6,8.5,1.6,3.3,0,6.3-.6,8.7-1.9,2.5-1.3,4.4-3,5.7-5.1s2-4.5,2-7c.1-2.8-.6-5.2-2.1-7" fill="#172267" stroke-width="0"/>
    <rect x="543" y="1162.1" width="4.6" height="45.2" fill="#172267" stroke-width="0"/>
    <polygon points="549.7 1162.1 549.7 1183.5 574.5 1183.5 574.5 1162.1 569.9 1162.1 569.9 1179.7 554 1179.7 554 1162.1 549.7 1162.1" fill="#172267" stroke-width="0"/>
    <rect x="576.6" y="1162.1" width="4.3" height="45.2" fill="#172267" stroke-width="0"/>
    <polygon points="720 1167.7 720 1183.3 740.6 1183.3 740.6 1179.8 724.4 1179.8 724.4 1171.4 740.6 1171.4 740.6 1167.7 720 1167.7" fill="#172267" stroke-width="0"/>
    <polygon points="713.4 1162.1 713.4 1207.3 740.6 1207.3 740.6 1198 724.4 1198 724.4 1189 740.6 1189 740.6 1185.4 720 1185.4 720 1201.8 740.6 1201.8 740.6 1203.9 717.9 1203.9 717.9 1165.6 740.6 1165.6 740.6 1162.1 713.4 1162.1" fill="#172267" stroke-width="0"/>
    <polygon points="549.7 1185.5 549.7 1207.3 554 1207.3 554 1189.1 569.9 1189.1 569.9 1207.3 574.5 1207.3 574.5 1185.5 549.7 1185.5" fill="#172267" stroke-width="0"/>
  </g>
  <g>
    <path d="m904.4,988.2h47.2c.4-.1.7.2.9.5.9,2,2,4,2.9,6,4.1,9.3,7,19,9.1,28.8,1.2,5.4,2.2,10.8,2.9,16.2.6,3.9,1,7.8,1.5,11.8.5,4.3.9,8.5,1.2,12.8.3,4.5.6,9,.8,13.5.3,6.5.5,13.1.7,19.6.1,4.5.2,9.1.2,13.6.1,12.1.2,24.2.2,36.4v3.9h-21.2v-.9c0-11.7,0-23.3-.2-35-.1-8.7-.3-17.5-.6-26.2-.1-3.8-.3-7.6-.5-11.4v-.5h-24.9v73.9h-20.3c-.1-.4-.1-162,.1-163m20.3,19.7v50h23.4v-.7c-.3-3-.6-6-1-9-.7-5.5-1.6-11-2.6-16.5-1.4-6.8-3.1-13.6-5.3-20.3-.4-1.2-.9-2.4-1.3-3.6l-13.2.1h0Z" fill="#172267" stroke-width="0"/>
    <path d="m812.3,988.2h47.7c.2.6.2,18.5.1,19.7h-25.1v50h19.1c.2.6.3,17.7.1,19.4h-19.1l-.1.1v73.9h-22.5l-.2-163.1h0Z" fill="#172267" stroke-width="0"/>
    <path d="m987.1,1007.9h-18v-19.7h58.6v19.7h-17.8v143.4h-22.6s-.1-95.6-.1-143.1v-.1s0,0-.1-.2" fill="#172267" stroke-width="0"/>
    <path d="m892.1,1151.4h-23.2l-.1-.1v-163c.6-.2,22.6-.2,23.3,0v163.1Z" fill="#172267" stroke-width="0"/>
    <path d="m887,1191.6c-1,2-2.4,3.5-4.1,4.5h0c-1.8,1-3.9,1.6-6.2,1.6s-4.4-.5-6.2-1.6c-1.8-1-3.2-2.6-4.2-4.5-1-2-1.5-4.3-1.5-7s.5-5,1.5-7c1-1.9,2.4-3.4,4.2-4.5,1.8-1,3.9-1.6,6.2-1.6s4.4.5,6.2,1.6c1.8,1,3.1,2.5,4.1,4.5s1.5,4.3,1.5,7-.5,5-1.5,7m-1.9-21.9c-2.6-1.5-5.4-2.2-8.5-2.2s-5.9.7-8.5,2.2-4.6,3.5-6.1,6.1-2.3,5.6-2.3,8.8.8,6.3,2.3,8.9,3.6,4.6,6.1,6.1c2.6,1.5,5.4,2.2,8.5,2.2s5.9-.7,8.5-2.2,4.6-3.5,6.1-6.1,2.2-5.6,2.2-8.9-.8-6.2-2.2-8.8c-1.5-2.6-3.5-4.6-6.1-6.1" fill="#172267" stroke-width="0"/>
    <path d="m893,1194.5c-1.7,2.9-4,5.2-6.9,6.9-2.9,1.6-6.1,2.5-9.5,2.5s-6.6-.8-9.5-2.5c-2.9-1.6-5.2-4-6.9-6.9s-2.5-6.2-2.5-9.9.9-6.9,2.5-9.9c1.7-2.9,4-5.2,6.9-6.9,2.9-1.6,6.1-2.5,9.5-2.5s6.7.8,9.5,2.5c2.9,1.6,5.2,4,6.9,6.9s2.5,6.2,2.5,9.8c0,3.8-.8,7.1-2.5,10m3.6-21.7c-2-3.5-4.9-6.3-8.4-8.3s-7.4-3-11.7-3-8.1,1-11.6,3-6.4,4.8-8.4,8.3c-2.1,3.5-3.1,7.5-3.1,11.9s1,8.4,3.1,11.9,4.9,6.3,8.4,8.3,7.4,3,11.6,3,8.1-1,11.6-3,6.3-4.8,8.4-8.3c2-3.5,3.1-7.5,3.1-11.9.1-4.5-.9-8.4-3-11.9" fill="#172267" stroke-width="0"/>
    <path d="m909.6,1162.1v28c0,2.5.5,4.7,1.6,6.4,1,1.7,2.5,3,4.3,3.9s3.8,1.3,6,1.3,4.3-.4,6.1-1.3,3.3-2.2,4.4-3.9c1.1-1.7,1.6-3.9,1.6-6.4v-28h-4.6v27.7c0,2.6-.6,4.5-1.9,5.8-1.3,1.3-3.1,1.9-5.6,1.9s-4.2-.6-5.5-1.9-1.9-3.3-1.9-5.8v-27.7h-4.5Z" fill="#172267" stroke-width="0"/>
    <path d="m935.6,1162.1v28c0,2.9-.7,5.4-1.9,7.5-1.3,2.1-3.1,3.6-5.2,4.7-2.1,1-4.5,1.5-7,1.5s-4.9-.5-6.9-1.5c-2.1-1-3.9-2.6-5.1-4.7-1.2-2.1-1.9-4.6-1.9-7.5v-28h-4.4v27.6c0,3.8.8,7.2,2.4,9.8,1.6,2.7,3.9,4.8,6.7,6.1,2.7,1.3,5.8,2,9.2,2s6.5-.7,9.3-2c2.8-1.4,5.1-3.4,6.8-6.1s2.5-6,2.5-9.9v-27.6h-4.5v.1Z" fill="#172267" stroke-width="0"/>
    <path d="m952,1186.3c1.8.8,4.1,1.7,7,2.5,2,.6,3.6,1.1,4.7,1.5,1,.4,1.8,1,2.5,1.6.6.6.8,1.4.8,2.3,0,1.2-.4,2.1-1.3,2.9-.9.8-2.3,1.2-4,1.2s-2.9-.4-3.8-1.2c-.9-.8-1.4-1.9-1.5-3.4l-.1-1.1h-4.5l.1,1.6c.2,2.5,1.2,4.4,2.9,5.8s4.1,2.1,6.9,2.1c1.9,0,3.6-.3,5-1,1.4-.6,2.6-1.6,3.4-2.8.8-1.2,1.2-2.6,1.2-4.2,0-1.7-.4-3.1-1.2-4.1s-1.7-1.8-2.8-2.3-2.6-1.1-4.4-1.6c-.1,0-.2-.1-.3-.1l-2.3-.7c-.2-.1-.4-.1-.7-.2-1.9-.6-3.5-1.1-4.7-1.7-1.4-.7-2.6-1.6-3.6-2.9-1.1-1.4-1.6-3.2-1.6-5.4,0-2,.5-3.9,1.5-5.4s2.5-2.7,4.3-3.5c1.7-.8,3.7-1.1,5.9-1.1,3.3,0,6,.8,8.2,2.5s3.5,4.2,3.7,7.3l.1,1.4h4.5l-.1-1.3c-.3-4.2-2-7.5-5-9.8s-6.8-3.5-11.5-3.5c-3.1,0-5.9.5-8.3,1.6-2.5,1.1-4.5,2.7-5.8,4.8-1.4,2.1-2.1,4.5-2.1,7.3,0,3,.7,5.4,2.1,7.2,1.3,1.5,2.9,2.9,4.8,3.7" fill="#172267" stroke-width="0"/>
    <path d="m976.1,1186.6c-1.4-1.8-3.1-3.1-5-4-1.8-.8-4.1-1.7-7-2.5-2-.6-3.6-1.1-4.6-1.6-1-.4-1.8-.9-2.4-1.6-.5-.5-.8-1.2-.8-2,0-1.3.4-2.2,1.1-2.8.8-.7,1.8-1,3.2-1,1.6,0,2.9.4,3.9,1.2.9.7,1.4,1.7,1.4,2.8l.1,1.1h5.2l-.1-1.3c-.2-2.5-1.2-4.4-2.9-5.8s-4.1-2.1-6.9-2.1c-1.9,0-3.6.3-5,1-1.4.6-2.6,1.6-3.4,2.8-.8,1.2-1.2,2.6-1.2,4.2,0,1.7.4,3.1,1.2,4.1s1.7,1.8,2.8,2.3,2.6,1.1,4.4,1.6c.1,0,.2.1.3.1l2.3.7c.2.1.4.1.7.2,1.9.6,3.5,1.1,4.7,1.7,1.4.7,2.6,1.6,3.6,2.9,1.1,1.4,1.6,3.2,1.6,5.4,0,2-.5,3.9-1.5,5.4s-2.5,2.7-4.3,3.5c-1.7.8-3.7,1.1-5.9,1.1-3.3,0-6-.8-8.2-2.5s-3.5-4.2-3.7-7.3l-.1-1.7h-4.9v1.2c0,2.9.8,5.4,2.4,7.5,1.5,2.1,3.6,3.7,6.2,4.8,2.5,1.1,5.4,1.6,8.5,1.6,3.3,0,6.3-.6,8.7-1.9,2.5-1.3,4.4-3,5.7-5.1s2-4.5,2-7c.1-2.8-.6-5.2-2.1-7" fill="#172267" stroke-width="0"/>
    <rect x="812.3" y="1162.1" width="4.6" height="45.2" fill="#172267" stroke-width="0"/>
    <polygon points="819 1162.1 819 1183.5 843.8 1183.5 843.8 1162.1 839.2 1162.1 839.2 1179.7 823.3 1179.7 823.3 1162.1 819 1162.1" fill="#172267" stroke-width="0"/>
    <rect x="845.9" y="1162.1" width="4.3" height="45.2" fill="#172267" stroke-width="0"/>
    <polygon points="989.3 1167.7 989.3 1183.3 1009.9 1183.3 1009.9 1179.8 993.7 1179.8 993.7 1171.4 1009.9 1171.4 1009.9 1167.7 989.3 1167.7" fill="#172267" stroke-width="0"/>
    <polygon points="982.7 1162.1 982.7 1207.3 1009.9 1207.3 1009.9 1198 993.7 1198 993.7 1189 1009.9 1189 1009.9 1185.4 989.3 1185.4 989.3 1201.8 1009.9 1201.8 1009.9 1203.9 987.2 1203.9 987.2 1165.6 1009.9 1165.6 1009.9 1162.1 982.7 1162.1" fill="#172267" stroke-width="0"/>
    <polygon points="819 1185.5 819 1207.3 823.3 1207.3 823.3 1189.1 839.2 1189.1 839.2 1207.3 843.8 1207.3 843.8 1185.5 819 1185.5" fill="#172267" stroke-width="0"/>
  </g>
</svg>