<?xml version="1.0" encoding="utf-8"?>
<!-- Generator: Adobe Illustrator 27.8.1, SVG Export Plug-In . SVG Version: 6.00 Build 0)  -->
<svg version="1.1" id="Layer_1" xmlns="http://www.w3.org/2000/svg" xmlns:xlink="http://www.w3.org/1999/xlink" x="0px" y="0px"
	 viewBox="0 0 45.7 34.6" style="enable-background:new 0 0 45.7 34.6;" xml:space="preserve">
<style type="text/css">
	.st0{clip-path:url(#SVGID_00000132051518347191721920000005506061415492447901_);fill:#FFFFFF;}
</style>
<g>
	<defs>
		<rect id="SVGID_1_" width="45.7" height="34.6"/>
	</defs>
	<clipPath id="SVGID_00000076595422458854917250000016066017187346661270_">
		<use xlink:href="#SVGID_1_"  style="overflow:visible;"/>
	</clipPath>
	<path style="clip-path:url(#SVGID_00000076595422458854917250000016066017187346661270_);fill:#FFFFFF;" d="M19.6,0h9.9h0.1
		c0.1,0,0.1,0,0.2,0.1c0.2,0.4,0.4,0.8,0.6,1.3c0.9,2,1.5,4,1.9,6.1c0.2,1.1,0.5,2.3,0.6,3.4c0.1,0.8,0.2,1.7,0.3,2.5
		c0.1,0.9,0.2,1.8,0.3,2.7c0.1,1,0.1,1.9,0.2,2.9c0.1,1.4,0.1,2.8,0.2,4.2c0,1,0,1.9,0,2.9c0,2.6,0,5.1,0,7.7c0,0.2,0,0.4,0,0.7v0.2
		h-4.5c0-0.1,0-0.1,0-0.2c0-2.5,0-4.9,0-7.4c0-1.9-0.1-3.7-0.1-5.6c0-0.8-0.1-1.6-0.1-2.4c0,0,0-0.1,0-0.1h-5.3v15.7h-4.3
		C19.5,34.5,19.5,0.2,19.6,0 M23.9,4.2v10.6h5c0-0.1,0-0.1,0-0.1c-0.1-0.6-0.1-1.3-0.2-1.9c-0.1-1.2-0.3-2.3-0.6-3.5
		c-0.3-1.5-0.6-2.9-1.1-4.3c-0.1-0.3-0.2-0.5-0.3-0.8L23.9,4.2L23.9,4.2z"/>
	<path style="clip-path:url(#SVGID_00000076595422458854917250000016066017187346661270_);fill:#FFFFFF;" d="M0,0h10.1
		c0,0.1,0,3.9,0,4.2H4.8v10.6c0.2,0,3.9,0,4.1,0c0,0.1,0.1,3.8,0,4.1h-4c0,0,0,0,0,0c0,0,0,0,0,0c0,0,0,0,0,0v0c0,5.2,0,10.4,0,15.6
		c0,0,0,0,0,0H0L0,0L0,0z"/>
	<path style="clip-path:url(#SVGID_00000076595422458854917250000016066017187346661270_);fill:#FFFFFF;" d="M37.1,4.2h-3.8V0h12.4
		v4.2h-3.8v30.4h-4.8C37.1,34.6,37.1,14.3,37.1,4.2L37.1,4.2C37.1,4.2,37.1,4.2,37.1,4.2"/>
	<path style="clip-path:url(#SVGID_00000076595422458854917250000016066017187346661270_);fill:#FFFFFF;" d="M16.9,34.6H12
		c0,0,0,0,0,0c0,0,0,0,0,0c0-11.5,0-23,0-34.5c0,0,0-0.1,0-0.1c0.1,0,4.8,0,5,0V34.6z"/>
</g>
</svg>
