<?xml version="1.0" encoding="utf-8"?>
<!-- Generator: Adobe Illustrator 27.8.1, SVG Export Plug-In . SVG Version: 6.00 Build 0)  -->
<svg version="1.1" id="Layer_1" xmlns="http://www.w3.org/2000/svg" xmlns:xlink="http://www.w3.org/1999/xlink" x="0px" y="0px"
	 viewBox="0 0 126.2 35.6" style="enable-background:new 0 0 126.2 35.6;" xml:space="preserve">
<style type="text/css">
	.st0{fill:#FFFFFF;}
</style>
<g>
	<path class="st0" d="M50.8,11.1c0,0-0.1-0.1-0.2-0.1h-2.6c-0.1,0-0.1,0-0.2,0.1c0,0-0.1,0.1-0.1,0.1l0,6.3c0,0,0,0.1,0,0.1
		c0,0,0,0-0.1,0l-4.2-6.4C43.5,11,43.4,11,43.3,11h-2.5c-0.1,0-0.1,0-0.2,0.1c0,0-0.1,0.1-0.1,0.1v11.3c0,0.1,0,0.1,0.1,0.2
		c0,0,0.1,0.1,0.2,0.1h2.6c0.1,0,0.1,0,0.2-0.1c0,0,0.1-0.1,0.1-0.2l0-6.3c0,0,0-0.1,0-0.1c0,0,0,0,0.1,0l4.2,6.4
		c0,0.1,0.1,0.1,0.3,0.1h2.5c0.1,0,0.1,0,0.2-0.1c0,0,0.1-0.1,0.1-0.2V11.2C50.9,11.1,50.9,11.1,50.8,11.1"/>
	<path class="st0" d="M68.1,20.4c0,0-0.1-0.1-0.2-0.1h-4.7c-0.1,0-0.1,0-0.1-0.1v-9c0-0.1,0-0.1-0.1-0.1c0,0-0.1-0.1-0.2-0.1h-2.6
		c-0.1,0-0.1,0-0.2,0.1c0,0-0.1,0.1-0.1,0.1v11.3c0,0.1,0,0.1,0.1,0.2c0,0,0.1,0.1,0.2,0.1h7.6c0.1,0,0.1,0,0.2-0.1
		c0,0,0.1-0.1,0.1-0.2v-2C68.1,20.5,68.1,20.4,68.1,20.4"/>
	<path class="st0" d="M88.1,11.1c0,0-0.1-0.1-0.2-0.1h-2.6c-0.1,0-0.2,0-0.3,0.1l-2.5,3.6c0,0.1-0.1,0.1-0.1,0l-2.6-3.6
		C79.8,11,79.7,11,79.6,11H77c-0.1,0-0.1,0-0.2,0.1c0,0-0.1,0.1-0.1,0.1v11.3c0,0.1,0,0.1,0.1,0.2c0,0,0.1,0.1,0.2,0.1h2.6
		c0.1,0,0.1,0,0.2-0.1c0,0,0.1-0.1,0.1-0.2v-6.7c0,0,0-0.1,0-0.1c0,0,0.1,0,0.1,0l1.6,2.3c0,0.1,0.1,0.1,0.3,0.1h1.3
		c0.1,0,0.2,0,0.3-0.1l1.6-2.3c0,0,0,0,0.1,0c0,0,0,0,0,0.1v6.7c0,0.1,0,0.1,0.1,0.2c0,0,0.1,0.1,0.2,0.1h2.6c0.1,0,0.1,0,0.2-0.1
		c0,0,0.1-0.1,0.1-0.2V11.2C88.1,11.1,88.1,11.1,88.1,11.1"/>
	<path class="st0" d="M106.8,11.1c0,0-0.1-0.1-0.2-0.1h-9.6c-0.1,0-0.1,0-0.2,0.1c0,0-0.1,0.1-0.1,0.1v2c0,0.1,0,0.1,0.1,0.2
		c0,0,0.1,0.1,0.2,0.1h3.1c0.1,0,0.1,0,0.1,0.1v9c0,0.1,0,0.1,0.1,0.2c0,0,0.1,0.1,0.2,0.1h2.6c0.1,0,0.1,0,0.2-0.1
		c0,0,0.1-0.1,0.1-0.2v-9c0-0.1,0-0.1,0.1-0.1h3.2c0.1,0,0.1,0,0.2-0.1c0,0,0.1-0.1,0.1-0.2v-2C106.9,11.1,106.8,11.1,106.8,11.1"/>
	<path class="st0" d="M122.3,18.6c0,0.5-0.2,1-0.5,1.3c-0.3,0.3-0.7,0.5-1.2,0.5h-1.9c-0.1,0-0.1,0-0.1-0.1v-6.8c0,0,0-0.1,0.1-0.1
		h1.9c0.5,0,0.9,0.2,1.2,0.5c0.3,0.3,0.5,0.8,0.5,1.3V18.6z M124.7,12.7c-0.4-0.6-1-1-1.7-1.3c-0.7-0.3-1.6-0.4-2.5-0.4h-4.7
		c-0.1,0-0.1,0-0.2,0.1c0,0-0.1,0.1-0.1,0.1v11.3c0,0.1,0,0.1,0.1,0.2c0,0,0.1,0.1,0.2,0.1h4.7c1,0,1.8-0.2,2.5-0.5
		c0.7-0.3,1.3-0.7,1.7-1.3c0.4-0.6,0.6-1.2,0.6-1.9v-4.4C125.3,13.9,125.1,13.3,124.7,12.7"/>
	<path class="st0" d="M63.2,30.9c-0.2-0.2-0.5-0.2-0.9-0.2h-1v1.9h1c0.4,0,0.7-0.1,0.9-0.2c0.2-0.2,0.3-0.4,0.3-0.7
		S63.4,31,63.2,30.9 M63.5,34.6l-1-1.4c0,0-0.1,0-0.2,0h-1.1v1.4h-0.9v-4.7h1.9c0.4,0,0.8,0.1,1.1,0.2c0.3,0.1,0.5,0.3,0.7,0.6
		c0.2,0.2,0.2,0.5,0.2,0.9c0,0.4-0.1,0.7-0.3,0.9c-0.2,0.3-0.4,0.4-0.7,0.6l1.1,1.5H63.5z"/>
</g>
<polygon class="st0" points="67.3,29.9 67.3,34.6 70.8,34.6 70.8,33.8 68.2,33.8 68.2,32.6 70.4,32.6 70.4,31.8 68.2,31.8 
	68.2,30.6 70.7,30.6 70.7,29.9 "/>
<path class="st0" d="M75.6,30.8l0.9,2h-1.8L75.6,30.8z M75.2,29.9l-2.1,4.7H74l0.5-1.1h2.3l0.5,1.1h0.9l-2.1-4.7H75.2z"/>
<polygon class="st0" points="80.8,29.9 80.8,34.6 84.1,34.6 84.1,33.8 81.7,33.8 81.7,29.9 "/>
<polygon class="st0" points="90.6,29.9 90.6,34.6 94.1,34.6 94.1,33.8 91.5,33.8 91.5,32.6 93.8,32.6 93.8,31.8 91.5,31.8 
	91.5,30.6 94.1,30.6 94.1,29.9 "/>
<g>
	<path class="st0" d="M97.5,34.5c-0.3-0.1-0.6-0.2-0.8-0.4l0.3-0.7c0.2,0.2,0.4,0.3,0.7,0.4c0.3,0.1,0.6,0.1,0.8,0.1
		c0.3,0,0.6-0.1,0.8-0.2c0.2-0.1,0.3-0.3,0.3-0.4c0-0.1,0-0.2-0.1-0.3c-0.1-0.1-0.2-0.2-0.4-0.2c-0.1,0-0.3-0.1-0.6-0.2
		c-0.4-0.1-0.6-0.2-0.9-0.3c-0.2-0.1-0.4-0.2-0.6-0.4c-0.2-0.2-0.2-0.4-0.2-0.7c0-0.3,0.1-0.5,0.2-0.7c0.1-0.2,0.4-0.4,0.6-0.5
		c0.3-0.1,0.6-0.2,1-0.2c0.3,0,0.6,0,0.8,0.1c0.3,0.1,0.5,0.2,0.7,0.3l-0.3,0.7c-0.2-0.1-0.4-0.2-0.6-0.3c-0.2-0.1-0.4-0.1-0.6-0.1
		c-0.3,0-0.6,0.1-0.8,0.2c-0.2,0.1-0.2,0.3-0.2,0.5c0,0.1,0,0.2,0.1,0.3c0.1,0.1,0.2,0.2,0.4,0.2c0.1,0,0.3,0.1,0.6,0.2
		c0.3,0.1,0.6,0.2,0.9,0.2c0.2,0.1,0.4,0.2,0.6,0.4c0.2,0.2,0.2,0.4,0.2,0.7c0,0.3-0.1,0.5-0.2,0.7c-0.1,0.2-0.4,0.4-0.6,0.5
		c-0.3,0.1-0.6,0.2-1,0.2C98.2,34.6,97.9,34.6,97.5,34.5"/>
</g>
<polygon class="st0" points="102.6,29.9 102.6,30.6 104.2,30.6 104.2,34.6 105.1,34.6 105.1,30.6 106.6,30.6 106.6,29.9 "/>
<path class="st0" d="M110.9,30.8l0.9,2H110L110.9,30.8z M110.5,29.9l-2.1,4.7h0.9l0.5-1.1h2.3l0.5,1.1h0.9l-2.1-4.7H110.5z"/>
<polygon class="st0" points="115.2,29.9 115.2,30.6 116.8,30.6 116.8,34.6 117.6,34.6 117.6,30.6 119.2,30.6 119.2,29.9 "/>
<polygon class="st0" points="121.8,29.9 121.8,34.6 125.3,34.6 125.3,33.8 122.7,33.8 122.7,32.6 125,32.6 125,31.8 122.7,31.8 
	122.7,30.6 125.2,30.6 125.2,29.9 "/>
<g>
	<path class="st0" d="M8.5,4.1H5.6c0,0-0.1,0-0.1-0.1V1.2c0,0,0-0.1,0.1-0.1h2.9c0,0,0.1,0,0.1,0.1L8.5,4.1C8.5,4.1,8.5,4.1,8.5,4.1
		 M8.5,8.3H5.6c0,0-0.1,0-0.1-0.1V5.4c0,0,0-0.1,0.1-0.1h2.9c0,0,0.1,0,0.1,0.1L8.5,8.3C8.5,8.3,8.5,8.3,8.5,8.3 M8.5,10.1v2.2
		c0,0,0,0.1-0.1,0.1H5.6c0,0-0.1,0-0.1-0.1v-2.2V9.4c0,0,0-0.1,0.1-0.1h2.9c0,0,0.1,0,0.1,0.1V10.1z M8.5,16.5H5.6
		c0,0-0.1,0-0.1-0.1v-2.9h2.9c0,0,0.1,0,0.1,0.1L8.5,16.5C8.5,16.5,8.5,16.5,8.5,16.5 M8.5,20.6H5.6c0,0-0.1,0-0.1-0.1v-2.9
		c0,0,0-0.1,0.1-0.1h2.9c0,0,0.1,0,0.1,0.1L8.5,20.6C8.5,20.6,8.5,20.6,8.5,20.6 M4.1,4.1H1.2c0,0-0.1,0-0.1-0.1V1.2
		c0,0,0-0.1,0.1-0.1h2.9c0,0,0.1,0,0.1,0.1L4.1,4.1C4.1,4.1,4.1,4.1,4.1,4.1 M4.1,8.3H1.2c0,0-0.1,0-0.1-0.1V5.4c0,0,0-0.1,0.1-0.1
		h2.9c0,0,0.1,0,0.1,0.1L4.1,8.3C4.1,8.3,4.1,8.3,4.1,8.3 M4.1,10.1v2.2c0,0,0,0.1-0.1,0.1H1.2c0,0-0.1,0-0.1-0.1v-2.2V9.4
		c0,0,0-0.1,0.1-0.1h2.9c0,0,0.1,0,0.1,0.1V10.1z M4.1,16.5H1.2c0,0-0.1,0-0.1-0.1v-2.9c0,0,0-0.1,0.1-0.1h2.9c0,0,0.1,0,0.1,0.1
		L4.1,16.5C4.1,16.5,4.1,16.5,4.1,16.5 M4.1,20.6H1.2c0,0-0.1,0-0.1-0.1v-2.9c0,0,0-0.1,0.1-0.1h2.9c0,0,0.1,0,0.1,0.1L4.1,20.6
		C4.1,20.6,4.1,20.6,4.1,20.6 M9.2,0H0.5C0.2,0,0,0.2,0,0.5v9.6v9.6c0,0.3,0,0.7,0,1h0c0.1,0.9,0.2,1.8,0.4,2.7
		c1.2,4.8,4.7,8.7,9.3,10.3v0V23.4v-2.7V10.1V0.5C9.7,0.2,9.5,0,9.2,0"/>
	<path class="st0" d="M10.3,33.9L10.3,33.9c0.6,0.2,1.3,0.4,1.9,0.5c0,0,0.3,0.1,0.6,0.1c0.3,0,0.7,0.1,1,0.1v0v-1c0,0,0,0,0,0V25
		c0-0.1-0.1-0.1-0.1-0.1h-3.2c-0.1,0-0.1,0.1-0.1,0.1V33.9z"/>
	<path class="st0" d="M14.4,34.6L14.4,34.6c0.1,0,0.3,0,0.4,0h0.1h1.7h0.1c0,0,0.1,0,0.1,0h0c0.3,0,0.5,0,0.8,0v0v-9.5
		c0-0.1-0.1-0.2-0.2-0.1l-3,1.9c0,0-0.1,0.1-0.1,0.1V34.6z"/>
	<path class="st0" d="M18.2,24.8L18.2,24.8l0,9.7v0c0.1,0,0.2,0,0.3,0h0.1c0.4,0,0.8-0.1,1.2-0.2v0c0.5-0.1,1-0.2,1.4-0.4v0V20.2
		c0-0.1-0.1-0.1-0.1-0.1h-2.7c-0.1,0-0.1,0.1-0.1,0.1V24.8z"/>
	<path class="st0" d="M30.1,5.9C30.1,6,30.1,6,30.1,5.9L28.5,6c-0.1,0-0.1,0-0.1-0.1V1.2c0-0.1,0-0.1,0.1-0.1H30
		c0.1,0,0.1,0,0.1,0.1V5.9z M30.1,11.8C30.1,11.8,30.1,11.9,30.1,11.8l-1.6,0.1c-0.1,0-0.1,0-0.1-0.1V7c0-0.1,0-0.1,0.1-0.1H30
		c0.1,0,0.1,0,0.1,0.1V11.8z M30.1,17.6C30.1,17.7,30.1,17.7,30.1,17.6l-1.6,0.1c-0.1,0-0.1,0-0.1-0.1v-4.8c0-0.1,0-0.1,0.1-0.1H30
		c0.1,0,0.1,0,0.1,0.1V17.6z M30.1,23.5C30.1,23.5,30.1,23.5,30.1,23.5l-1.6,0.1c-0.1,0-0.1,0-0.1-0.1v-4.8c0-0.1,0-0.1,0.1-0.1H30
		c0.1,0,0.1,0,0.1,0.1V23.5z M27.5,5.9C27.5,6,27.5,6,27.5,5.9L25.9,6c-0.1,0-0.1,0-0.1-0.1V1.2c0-0.1,0-0.1,0.1-0.1h1.5
		c0.1,0,0.1,0,0.1,0.1V5.9z M27.5,11.8C27.5,11.8,27.5,11.9,27.5,11.8l-1.6,0.1c-0.1,0-0.1,0-0.1-0.1V7c0-0.1,0-0.1,0.1-0.1h1.5
		c0.1,0,0.1,0,0.1,0.1V11.8z M27.5,17.6C27.5,17.7,27.5,17.7,27.5,17.6l-1.6,0.1c-0.1,0-0.1,0-0.1-0.1v-4.8c0-0.1,0-0.1,0.1-0.1h1.5
		c0.1,0,0.1,0,0.1,0.1V17.6z M27.5,23.5C27.5,23.5,27.5,23.5,27.5,23.5l-1.6,0.1c-0.1,0-0.1,0-0.1-0.1v-4.8c0-0.1,0-0.1,0.1-0.1h1.5
		c0.1,0,0.1,0,0.1,0.1V23.5z M24.8,5.9C24.8,6,24.8,6,24.8,5.9L23.2,6c-0.1,0-0.1,0-0.1-0.1V1.2c0-0.1,0-0.1,0.1-0.1h1.5
		c0.1,0,0.1,0,0.1,0.1V5.9z M24.8,11.8C24.8,11.8,24.8,11.9,24.8,11.8l-1.6,0.1c-0.1,0-0.1,0-0.1-0.1V7c0-0.1,0-0.1,0.1-0.1h1.5
		c0.1,0,0.1,0,0.1,0.1V11.8z M24.8,17.6C24.8,17.7,24.8,17.7,24.8,17.6l-1.6,0.1c-0.1,0-0.1,0-0.1-0.1v-4.8c0-0.1,0-0.1,0.1-0.1h1.5
		c0.1,0,0.1,0,0.1,0.1V17.6z M24.8,23.5C24.8,23.5,24.8,23.5,24.8,23.5l-1.6,0.1c-0.1,0-0.1,0-0.1-0.1v-4.8c0-0.1,0-0.1,0.1-0.1h1.5
		c0.1,0,0.1,0,0.1,0.1V23.5z M31,0h-8.7c-0.3,0-0.5,0.2-0.5,0.5v2.2v0.3v7v13.3v2.4v7.8v0c3.8-1.4,6.8-4.2,8.5-7.9
		c0.3-0.8,0.6-1.6,0.8-2.4h0c0.3-1.2,0.5-2.5,0.5-3.8v-9.6v-7V2.7V0.5C31.5,0.2,31.3,0,31,0"/>
</g>
</svg>
